G75*
%MOIN*%
%OFA0B0*%
%FSLAX24Y24*%
%IPPOS*%
%LPD*%
%AMOC8*
5,1,8,0,0,1.08239X$1,22.5*
%
%ADD10C,0.0787*%
%ADD11C,0.0740*%
%ADD12C,0.0650*%
%ADD13R,0.0650X0.0650*%
%ADD14C,0.0690*%
%ADD15C,0.0705*%
%ADD16C,0.0740*%
%ADD17C,0.0600*%
%ADD18C,0.0860*%
%ADD19C,0.0660*%
%ADD20R,0.0800X0.0800*%
%ADD21C,0.0800*%
%ADD22C,0.0520*%
%ADD23C,0.2300*%
%ADD24C,0.0160*%
%ADD25C,0.0100*%
%ADD26C,0.0120*%
D10*
X004358Y005433D02*
X005146Y005433D01*
X005933Y007008D02*
X005933Y007796D01*
X003453Y007796D02*
X003453Y007008D01*
D11*
X003256Y009623D02*
X003256Y010363D01*
X004256Y010363D02*
X004256Y009623D01*
D12*
X004150Y013536D03*
X011787Y015347D03*
X013386Y015898D03*
D13*
X014386Y015898D03*
X010787Y015347D03*
X003150Y013536D03*
D14*
X018791Y011174D03*
X019791Y011174D03*
X020791Y011174D03*
X021791Y011174D03*
X022791Y011174D03*
X023791Y011174D03*
X024791Y011174D03*
X025791Y011174D03*
X026791Y011174D03*
X027791Y011174D03*
X028791Y011174D03*
X029791Y011174D03*
X029791Y018174D03*
X028791Y018174D03*
X027791Y018174D03*
X026791Y018174D03*
X025791Y018174D03*
X024791Y018174D03*
X023791Y018174D03*
X022791Y018174D03*
X021791Y018174D03*
X020791Y018174D03*
X019791Y018174D03*
X018791Y018174D03*
D15*
X019217Y004758D02*
X019217Y004053D01*
X021217Y004053D02*
X021217Y004758D01*
X023217Y004758D02*
X023217Y004053D01*
X025217Y004053D02*
X025217Y004758D01*
X025217Y001758D02*
X025217Y001053D01*
X023217Y001053D02*
X023217Y001758D01*
X021217Y001758D02*
X021217Y001053D01*
X019217Y001053D02*
X019217Y001758D01*
X017217Y001758D02*
X017217Y001053D01*
X015217Y001053D02*
X015217Y001758D01*
X013217Y001758D02*
X013217Y001053D01*
X011217Y001053D02*
X011217Y001758D01*
X011217Y004053D02*
X011217Y004758D01*
X013217Y004758D02*
X013217Y004053D01*
X015217Y004053D02*
X015217Y004758D01*
X017217Y004758D02*
X017217Y004053D01*
D16*
X016642Y005949D03*
X017392Y006449D03*
X016642Y006949D03*
X015030Y006449D03*
X014280Y005949D03*
X012667Y006449D03*
X011917Y005949D03*
X011917Y006949D03*
X010305Y006449D03*
X009555Y006949D03*
X009555Y005949D03*
X014280Y006949D03*
X019004Y006949D03*
X019754Y006449D03*
X019004Y005949D03*
X021366Y005949D03*
X022116Y006449D03*
X021366Y006949D03*
X023728Y006949D03*
X024478Y006449D03*
X023728Y005949D03*
X026091Y005949D03*
X026841Y006449D03*
X026091Y006949D03*
X030815Y006130D03*
X031917Y006130D03*
X031917Y009130D03*
X030815Y009130D03*
X008535Y011961D03*
X006012Y012957D03*
X006012Y013957D03*
X005535Y011961D03*
D17*
X005541Y015173D02*
X005541Y015773D01*
X004201Y015773D02*
X004201Y015173D01*
X002861Y015173D02*
X002861Y015773D01*
X003531Y016813D02*
X003531Y017413D01*
X004871Y017413D02*
X004871Y016813D01*
D18*
X008138Y016095D03*
X008138Y014126D03*
D19*
X009760Y013300D03*
X009760Y011961D03*
X013760Y011961D03*
X013760Y013300D03*
D20*
X005618Y002512D03*
D21*
X007587Y002512D03*
D22*
X010386Y008158D02*
X010386Y008678D01*
X011386Y008678D02*
X011386Y008158D01*
X012386Y008158D02*
X012386Y008678D01*
X013386Y008678D02*
X013386Y008158D01*
X014386Y008158D02*
X014386Y008678D01*
X015386Y008678D02*
X015386Y008158D01*
X016386Y008158D02*
X016386Y008678D01*
X017386Y008678D02*
X017386Y008158D01*
X018654Y008158D02*
X018654Y008678D01*
X019654Y008678D02*
X019654Y008158D01*
X020654Y008158D02*
X020654Y008678D01*
X021654Y008678D02*
X021654Y008158D01*
X022654Y008158D02*
X022654Y008678D01*
X023654Y008678D02*
X023654Y008158D01*
X024654Y008158D02*
X024654Y008678D01*
X025654Y008678D02*
X025654Y008158D01*
D23*
X028846Y002512D03*
X007823Y009441D03*
D24*
X005933Y007402D02*
X005933Y002827D01*
X005618Y002512D01*
X007587Y002512D01*
X009555Y006949D02*
X009764Y007158D01*
X011709Y007158D01*
X011917Y006949D01*
X012126Y007158D01*
X012902Y007158D01*
X012902Y008890D01*
X013760Y009748D01*
X013760Y011961D01*
X008138Y014126D02*
X006012Y016252D01*
X004555Y016252D01*
X003695Y017113D01*
X003531Y017113D01*
X004150Y013536D02*
X004122Y013508D01*
X004122Y012315D01*
X003256Y011449D01*
X003256Y009993D01*
X012902Y007158D02*
X014071Y007158D01*
X014280Y006949D01*
X014488Y007158D01*
X016433Y007158D01*
X016642Y006949D01*
X016850Y007158D01*
X018795Y007158D01*
X019004Y006949D01*
X019213Y007158D01*
X021157Y007158D01*
X021366Y006949D01*
X021575Y007158D01*
X023520Y007158D01*
X023728Y006949D01*
X023937Y007158D01*
X025882Y007158D01*
X026091Y006949D01*
D25*
X010654Y001037D02*
X001985Y001037D01*
X002002Y000975D02*
X001939Y001210D01*
X001931Y001331D01*
X001931Y018649D01*
X001939Y018770D01*
X002002Y019005D01*
X002124Y019216D01*
X002295Y019388D01*
X002506Y019509D01*
X002741Y019572D01*
X002862Y019580D01*
X031996Y019580D01*
X032118Y019572D01*
X032352Y019509D01*
X032563Y019388D01*
X032735Y019216D01*
X032856Y019005D01*
X032919Y018770D01*
X032927Y018649D01*
X032927Y001331D01*
X032919Y001210D01*
X032856Y000975D01*
X032735Y000764D01*
X032563Y000592D01*
X032352Y000471D01*
X032118Y000408D01*
X031996Y000400D01*
X002862Y000400D01*
X002741Y000408D01*
X002506Y000471D01*
X002295Y000592D01*
X002124Y000764D01*
X002002Y000975D01*
X002023Y000938D02*
X010655Y000938D01*
X010654Y000942D02*
X010740Y000735D01*
X010898Y000577D01*
X011105Y000491D01*
X011328Y000491D01*
X011535Y000577D01*
X011693Y000735D01*
X011779Y000942D01*
X011779Y001870D01*
X011693Y002077D01*
X011535Y002235D01*
X011328Y002321D01*
X011105Y002321D01*
X010898Y002235D01*
X010740Y002077D01*
X010654Y001870D01*
X010654Y000942D01*
X010696Y000840D02*
X002080Y000840D01*
X002147Y000741D02*
X010737Y000741D01*
X010832Y000643D02*
X002245Y000643D01*
X002379Y000544D02*
X010976Y000544D01*
X011457Y000544D02*
X012976Y000544D01*
X012898Y000577D02*
X013105Y000491D01*
X013328Y000491D01*
X013535Y000577D01*
X013693Y000735D01*
X013779Y000942D01*
X013779Y001870D01*
X013693Y002077D01*
X013535Y002235D01*
X013328Y002321D01*
X013105Y002321D01*
X012898Y002235D01*
X012740Y002077D01*
X012654Y001870D01*
X012654Y000942D01*
X012740Y000735D01*
X012898Y000577D01*
X012832Y000643D02*
X011601Y000643D01*
X011696Y000741D02*
X012737Y000741D01*
X012696Y000840D02*
X011737Y000840D01*
X011778Y000938D02*
X012655Y000938D01*
X012654Y001037D02*
X011779Y001037D01*
X011779Y001135D02*
X012654Y001135D01*
X012654Y001234D02*
X011779Y001234D01*
X011779Y001332D02*
X012654Y001332D01*
X012654Y001431D02*
X011779Y001431D01*
X011779Y001529D02*
X012654Y001529D01*
X012654Y001628D02*
X011779Y001628D01*
X011779Y001726D02*
X012654Y001726D01*
X012654Y001825D02*
X011779Y001825D01*
X011757Y001923D02*
X012676Y001923D01*
X012717Y002022D02*
X011716Y002022D01*
X011650Y002120D02*
X012783Y002120D01*
X012881Y002219D02*
X011552Y002219D01*
X011338Y002317D02*
X013095Y002317D01*
X013338Y002317D02*
X015095Y002317D01*
X015105Y002321D02*
X014898Y002235D01*
X014740Y002077D01*
X014654Y001870D01*
X014654Y000942D01*
X014740Y000735D01*
X014898Y000577D01*
X015105Y000491D01*
X015328Y000491D01*
X015535Y000577D01*
X015693Y000735D01*
X015779Y000942D01*
X015779Y001870D01*
X015693Y002077D01*
X015535Y002235D01*
X015328Y002321D01*
X015105Y002321D01*
X015338Y002317D02*
X017095Y002317D01*
X017105Y002321D02*
X016898Y002235D01*
X016740Y002077D01*
X016654Y001870D01*
X016654Y000942D01*
X016740Y000735D01*
X016898Y000577D01*
X017105Y000491D01*
X017328Y000491D01*
X017535Y000577D01*
X017693Y000735D01*
X017779Y000942D01*
X017779Y001870D01*
X017693Y002077D01*
X017535Y002235D01*
X017328Y002321D01*
X017105Y002321D01*
X017338Y002317D02*
X019095Y002317D01*
X019105Y002321D02*
X018898Y002235D01*
X018740Y002077D01*
X018654Y001870D01*
X018654Y000942D01*
X018740Y000735D01*
X018898Y000577D01*
X019105Y000491D01*
X019328Y000491D01*
X019535Y000577D01*
X019693Y000735D01*
X019779Y000942D01*
X019779Y001870D01*
X019693Y002077D01*
X019535Y002235D01*
X019328Y002321D01*
X019105Y002321D01*
X019338Y002317D02*
X021095Y002317D01*
X021105Y002321D02*
X020898Y002235D01*
X020740Y002077D01*
X020654Y001870D01*
X020654Y000942D01*
X020740Y000735D01*
X020898Y000577D01*
X021105Y000491D01*
X021328Y000491D01*
X021535Y000577D01*
X021693Y000735D01*
X021779Y000942D01*
X021779Y001870D01*
X021693Y002077D01*
X021535Y002235D01*
X021328Y002321D01*
X021105Y002321D01*
X021338Y002317D02*
X023095Y002317D01*
X023105Y002321D02*
X022898Y002235D01*
X022740Y002077D01*
X022654Y001870D01*
X022654Y000942D01*
X022740Y000735D01*
X022898Y000577D01*
X023105Y000491D01*
X023328Y000491D01*
X023535Y000577D01*
X023693Y000735D01*
X023779Y000942D01*
X023779Y001870D01*
X023693Y002077D01*
X023535Y002235D01*
X023328Y002321D01*
X023105Y002321D01*
X023338Y002317D02*
X025095Y002317D01*
X025105Y002321D02*
X024898Y002235D01*
X024740Y002077D01*
X024654Y001870D01*
X024654Y000942D01*
X024740Y000735D01*
X024898Y000577D01*
X025105Y000491D01*
X025328Y000491D01*
X025535Y000577D01*
X025693Y000735D01*
X025779Y000942D01*
X025779Y001870D01*
X025693Y002077D01*
X025535Y002235D01*
X025328Y002321D01*
X025105Y002321D01*
X025338Y002317D02*
X027491Y002317D01*
X027486Y002333D02*
X027579Y001987D01*
X027758Y001677D01*
X028011Y001424D01*
X028322Y001245D01*
X028667Y001152D01*
X029026Y001152D01*
X029371Y001245D01*
X029682Y001424D01*
X029935Y001677D01*
X030114Y001987D01*
X030206Y002333D01*
X030206Y002691D01*
X030114Y003037D01*
X029935Y003347D01*
X029682Y003600D01*
X029371Y003780D01*
X029026Y003872D01*
X028667Y003872D01*
X028322Y003780D01*
X028011Y003600D01*
X027758Y003347D01*
X027579Y003037D01*
X027486Y002691D01*
X027486Y002333D01*
X027486Y002416D02*
X008197Y002416D01*
X008197Y002391D02*
X008197Y002634D01*
X008104Y002858D01*
X007932Y003029D01*
X007708Y003122D01*
X007465Y003122D01*
X007241Y003029D01*
X007069Y002858D01*
X007046Y002802D01*
X006228Y002802D01*
X006228Y002999D01*
X006223Y003004D01*
X006223Y006475D01*
X006275Y006496D01*
X006445Y006666D01*
X006537Y006888D01*
X006537Y007916D01*
X006445Y008138D01*
X006275Y008307D01*
X006053Y008399D01*
X005813Y008399D01*
X005591Y008307D01*
X005421Y008138D01*
X005329Y007916D01*
X005329Y006888D01*
X005421Y006666D01*
X005591Y006496D01*
X005643Y006475D01*
X005643Y005655D01*
X005611Y005718D01*
X005560Y005788D01*
X005500Y005848D01*
X005431Y005898D01*
X005354Y005937D01*
X005273Y005964D01*
X005188Y005977D01*
X004800Y005977D01*
X004800Y005482D01*
X004704Y005482D01*
X004704Y005977D01*
X004315Y005977D01*
X004231Y005964D01*
X004150Y005937D01*
X004073Y005898D01*
X004004Y005848D01*
X003944Y005788D01*
X003893Y005718D01*
X003854Y005642D01*
X003828Y005561D01*
X003815Y005482D01*
X004704Y005482D01*
X004704Y005385D01*
X004800Y005385D01*
X004800Y004890D01*
X005188Y004890D01*
X005273Y004903D01*
X005354Y004930D01*
X005431Y004968D01*
X005500Y005019D01*
X005560Y005079D01*
X005611Y005149D01*
X005643Y005212D01*
X005643Y003122D01*
X005131Y003122D01*
X005008Y002999D01*
X005008Y002025D01*
X005131Y001902D01*
X006105Y001902D01*
X006228Y002025D01*
X006228Y002222D01*
X007046Y002222D01*
X007069Y002167D01*
X007241Y001995D01*
X007465Y001902D01*
X007708Y001902D01*
X007932Y001995D01*
X008104Y002167D01*
X008197Y002391D01*
X008166Y002317D02*
X011095Y002317D01*
X010881Y002219D02*
X008125Y002219D01*
X008057Y002120D02*
X010783Y002120D01*
X010717Y002022D02*
X007959Y002022D01*
X007758Y001923D02*
X010676Y001923D01*
X010654Y001825D02*
X001931Y001825D01*
X001931Y001923D02*
X005110Y001923D01*
X005012Y002022D02*
X001931Y002022D01*
X001931Y002120D02*
X005008Y002120D01*
X005008Y002219D02*
X001931Y002219D01*
X001931Y002317D02*
X005008Y002317D01*
X005008Y002416D02*
X001931Y002416D01*
X001931Y002514D02*
X005008Y002514D01*
X005008Y002613D02*
X001931Y002613D01*
X001931Y002711D02*
X005008Y002711D01*
X005008Y002810D02*
X001931Y002810D01*
X001931Y002908D02*
X005008Y002908D01*
X005015Y003007D02*
X001931Y003007D01*
X001931Y003105D02*
X005114Y003105D01*
X005643Y003204D02*
X001931Y003204D01*
X001931Y003302D02*
X005643Y003302D01*
X005643Y003401D02*
X001931Y003401D01*
X001931Y003499D02*
X005643Y003499D01*
X005643Y003598D02*
X001931Y003598D01*
X001931Y003696D02*
X005643Y003696D01*
X005643Y003795D02*
X001931Y003795D01*
X001931Y003893D02*
X005643Y003893D01*
X005643Y003992D02*
X001931Y003992D01*
X001931Y004090D02*
X005643Y004090D01*
X005643Y004189D02*
X001931Y004189D01*
X001931Y004287D02*
X005643Y004287D01*
X005643Y004386D02*
X001931Y004386D01*
X001931Y004484D02*
X005643Y004484D01*
X005643Y004583D02*
X001931Y004583D01*
X001931Y004681D02*
X005643Y004681D01*
X005643Y004780D02*
X001931Y004780D01*
X001931Y004878D02*
X005643Y004878D01*
X005643Y004977D02*
X005442Y004977D01*
X005556Y005075D02*
X005643Y005075D01*
X005643Y005174D02*
X005623Y005174D01*
X006223Y005174D02*
X010836Y005174D01*
X010898Y005235D02*
X010740Y005077D01*
X010654Y004870D01*
X010654Y003942D01*
X010740Y003735D01*
X010898Y003577D01*
X011105Y003491D01*
X011328Y003491D01*
X011535Y003577D01*
X011693Y003735D01*
X011779Y003942D01*
X011779Y004870D01*
X011693Y005077D01*
X011535Y005235D01*
X011328Y005321D01*
X011105Y005321D01*
X010898Y005235D01*
X010987Y005272D02*
X006223Y005272D01*
X006223Y005371D02*
X009437Y005371D01*
X009440Y005369D02*
X009670Y005369D01*
X009884Y005458D01*
X010047Y005621D01*
X010135Y005834D01*
X010135Y005892D01*
X010190Y005869D01*
X010420Y005869D01*
X010634Y005958D01*
X010797Y006121D01*
X010885Y006334D01*
X010885Y006565D01*
X010797Y006778D01*
X010634Y006941D01*
X010420Y007029D01*
X010190Y007029D01*
X010075Y006982D01*
X010075Y006990D01*
X010062Y007071D01*
X010037Y007149D01*
X010000Y007222D01*
X009952Y007288D01*
X009894Y007346D01*
X009828Y007394D01*
X009755Y007431D01*
X009677Y007456D01*
X009596Y007469D01*
X009585Y007469D01*
X009585Y006979D01*
X009525Y006979D01*
X009525Y006919D01*
X009035Y006919D01*
X009035Y006908D01*
X009048Y006827D01*
X009073Y006750D01*
X009110Y006677D01*
X009158Y006610D01*
X009216Y006553D01*
X009283Y006504D01*
X009326Y006482D01*
X009227Y006441D01*
X009063Y006278D01*
X008975Y006065D01*
X008975Y005834D01*
X009063Y005621D01*
X009227Y005458D01*
X009440Y005369D01*
X009674Y005371D02*
X011799Y005371D01*
X011802Y005369D02*
X012033Y005369D01*
X012246Y005458D01*
X012409Y005621D01*
X012497Y005834D01*
X012497Y005892D01*
X012552Y005869D01*
X012783Y005869D01*
X012996Y005958D01*
X013159Y006121D01*
X013247Y006334D01*
X013247Y006565D01*
X013159Y006778D01*
X012996Y006941D01*
X012783Y007029D01*
X012552Y007029D01*
X012437Y006982D01*
X012437Y006990D01*
X012425Y007071D01*
X012399Y007149D01*
X012362Y007222D01*
X012314Y007288D01*
X012256Y007346D01*
X012190Y007394D01*
X012117Y007431D01*
X012039Y007456D01*
X011958Y007469D01*
X011947Y007469D01*
X011947Y006979D01*
X011887Y006979D01*
X011887Y006919D01*
X011397Y006919D01*
X011397Y006908D01*
X011410Y006827D01*
X011435Y006750D01*
X011473Y006677D01*
X011521Y006610D01*
X011579Y006553D01*
X010885Y006553D01*
X010885Y006454D02*
X011620Y006454D01*
X011589Y006441D02*
X011426Y006278D01*
X011337Y006065D01*
X011337Y005834D01*
X011426Y005621D01*
X011589Y005458D01*
X011802Y005369D01*
X012036Y005371D02*
X014161Y005371D01*
X014164Y005369D02*
X014395Y005369D01*
X014608Y005458D01*
X014771Y005621D01*
X014860Y005834D01*
X014860Y005892D01*
X014914Y005869D01*
X015145Y005869D01*
X015358Y005958D01*
X015521Y006121D01*
X015610Y006334D01*
X015610Y006565D01*
X015521Y006778D01*
X015358Y006941D01*
X015145Y007029D01*
X014914Y007029D01*
X014800Y006982D01*
X014800Y006990D01*
X014787Y007071D01*
X014761Y007149D01*
X014724Y007222D01*
X014676Y007288D01*
X014618Y007346D01*
X014552Y007394D01*
X014479Y007431D01*
X014401Y007456D01*
X014320Y007469D01*
X014310Y007469D01*
X014310Y006979D01*
X014250Y006979D01*
X014250Y007469D01*
X014239Y007469D01*
X014158Y007456D01*
X014080Y007431D01*
X014007Y007394D01*
X013941Y007346D01*
X013883Y007288D01*
X013835Y007222D01*
X013798Y007149D01*
X013772Y007071D01*
X013760Y006990D01*
X013760Y006979D01*
X014250Y006979D01*
X014250Y006919D01*
X013760Y006919D01*
X013760Y006908D01*
X013772Y006827D01*
X013798Y006750D01*
X013835Y006677D01*
X013883Y006610D01*
X013941Y006553D01*
X014007Y006504D01*
X014051Y006482D01*
X013951Y006441D01*
X013788Y006278D01*
X013700Y006065D01*
X013700Y005834D01*
X013788Y005621D01*
X013951Y005458D01*
X014164Y005369D01*
X014398Y005371D02*
X016523Y005371D01*
X016526Y005369D02*
X016757Y005369D01*
X016970Y005458D01*
X017133Y005621D01*
X017222Y005834D01*
X017222Y005892D01*
X017276Y005869D01*
X017507Y005869D01*
X017720Y005958D01*
X017883Y006121D01*
X017972Y006334D01*
X017972Y006565D01*
X017883Y006778D01*
X017720Y006941D01*
X017507Y007029D01*
X017276Y007029D01*
X017162Y006982D01*
X017162Y006990D01*
X017149Y007071D01*
X017124Y007149D01*
X017086Y007222D01*
X017038Y007288D01*
X016980Y007346D01*
X016914Y007394D01*
X016841Y007431D01*
X016763Y007456D01*
X016683Y007469D01*
X016672Y007469D01*
X016672Y006979D01*
X016612Y006979D01*
X016612Y006919D01*
X016122Y006919D01*
X016122Y006908D01*
X016135Y006827D01*
X016160Y006750D01*
X016197Y006677D01*
X016245Y006610D01*
X016303Y006553D01*
X016369Y006504D01*
X016413Y006482D01*
X016313Y006441D01*
X016150Y006278D01*
X016062Y006065D01*
X016062Y005834D01*
X016150Y005621D01*
X016313Y005458D01*
X016526Y005369D01*
X016760Y005371D02*
X018885Y005371D01*
X018889Y005369D02*
X019119Y005369D01*
X019332Y005458D01*
X019496Y005621D01*
X019584Y005834D01*
X019584Y005892D01*
X019639Y005869D01*
X019869Y005869D01*
X020082Y005958D01*
X020246Y006121D01*
X020334Y006334D01*
X020334Y006565D01*
X020246Y006778D01*
X020082Y006941D01*
X019869Y007029D01*
X019639Y007029D01*
X019524Y006982D01*
X019524Y006990D01*
X019511Y007071D01*
X019486Y007149D01*
X019449Y007222D01*
X019401Y007288D01*
X019343Y007346D01*
X019276Y007394D01*
X019204Y007431D01*
X019126Y007456D01*
X019045Y007469D01*
X019034Y007469D01*
X019034Y006979D01*
X018974Y006979D01*
X018974Y006919D01*
X018484Y006919D01*
X018484Y006908D01*
X018497Y006827D01*
X018522Y006750D01*
X018559Y006677D01*
X018607Y006610D01*
X018665Y006553D01*
X018731Y006504D01*
X018775Y006482D01*
X018675Y006441D01*
X018512Y006278D01*
X018424Y006065D01*
X018424Y005834D01*
X018512Y005621D01*
X018675Y005458D01*
X018889Y005369D01*
X018898Y005235D02*
X018740Y005077D01*
X018654Y004870D01*
X018654Y003942D01*
X018740Y003735D01*
X018898Y003577D01*
X019105Y003491D01*
X019328Y003491D01*
X019535Y003577D01*
X019693Y003735D01*
X019779Y003942D01*
X019779Y004870D01*
X019693Y005077D01*
X019535Y005235D01*
X019328Y005321D01*
X019105Y005321D01*
X018898Y005235D01*
X018836Y005174D02*
X017597Y005174D01*
X017535Y005235D02*
X017328Y005321D01*
X017105Y005321D01*
X016898Y005235D01*
X016740Y005077D01*
X016654Y004870D01*
X016654Y003942D01*
X016740Y003735D01*
X016898Y003577D01*
X017105Y003491D01*
X017328Y003491D01*
X017535Y003577D01*
X017693Y003735D01*
X017779Y003942D01*
X017779Y004870D01*
X017693Y005077D01*
X017535Y005235D01*
X017446Y005272D02*
X018987Y005272D01*
X019122Y005371D02*
X021248Y005371D01*
X021251Y005369D02*
X021482Y005369D01*
X021695Y005458D01*
X021858Y005621D01*
X021946Y005834D01*
X021946Y005892D01*
X022001Y005869D01*
X022232Y005869D01*
X022445Y005958D01*
X022608Y006121D01*
X022696Y006334D01*
X022696Y006565D01*
X022608Y006778D01*
X022445Y006941D01*
X022232Y007029D01*
X022001Y007029D01*
X021886Y006982D01*
X021886Y006990D01*
X021873Y007071D01*
X021848Y007149D01*
X021811Y007222D01*
X021763Y007288D01*
X021705Y007346D01*
X021639Y007394D01*
X021566Y007431D01*
X021488Y007456D01*
X021407Y007469D01*
X021396Y007469D01*
X021396Y006979D01*
X021336Y006979D01*
X021336Y006919D01*
X020846Y006919D01*
X020846Y006908D01*
X020859Y006827D01*
X020884Y006750D01*
X020921Y006677D01*
X020970Y006610D01*
X021027Y006553D01*
X021094Y006504D01*
X021137Y006482D01*
X021038Y006441D01*
X020874Y006278D01*
X020786Y006065D01*
X020786Y005834D01*
X020874Y005621D01*
X021038Y005458D01*
X021251Y005369D01*
X021328Y005321D02*
X021105Y005321D01*
X020898Y005235D01*
X020740Y005077D01*
X020654Y004870D01*
X020654Y003942D01*
X020740Y003735D01*
X020898Y003577D01*
X021105Y003491D01*
X021328Y003491D01*
X021535Y003577D01*
X021693Y003735D01*
X021779Y003942D01*
X021779Y004870D01*
X021693Y005077D01*
X021535Y005235D01*
X021328Y005321D01*
X021446Y005272D02*
X022987Y005272D01*
X022898Y005235D02*
X022740Y005077D01*
X022654Y004870D01*
X022654Y003942D01*
X022740Y003735D01*
X022898Y003577D01*
X023105Y003491D01*
X023328Y003491D01*
X023535Y003577D01*
X023693Y003735D01*
X023779Y003942D01*
X023779Y004870D01*
X023693Y005077D01*
X023535Y005235D01*
X023328Y005321D01*
X023105Y005321D01*
X022898Y005235D01*
X022836Y005174D02*
X021597Y005174D01*
X021694Y005075D02*
X022739Y005075D01*
X022698Y004977D02*
X021735Y004977D01*
X021776Y004878D02*
X022657Y004878D01*
X022654Y004780D02*
X021779Y004780D01*
X021779Y004681D02*
X022654Y004681D01*
X022654Y004583D02*
X021779Y004583D01*
X021779Y004484D02*
X022654Y004484D01*
X022654Y004386D02*
X021779Y004386D01*
X021779Y004287D02*
X022654Y004287D01*
X022654Y004189D02*
X021779Y004189D01*
X021779Y004090D02*
X022654Y004090D01*
X022654Y003992D02*
X021779Y003992D01*
X021759Y003893D02*
X022674Y003893D01*
X022715Y003795D02*
X021718Y003795D01*
X021655Y003696D02*
X022778Y003696D01*
X022877Y003598D02*
X021556Y003598D01*
X021348Y003499D02*
X023085Y003499D01*
X023348Y003499D02*
X025085Y003499D01*
X025105Y003491D02*
X025328Y003491D01*
X025535Y003577D01*
X025693Y003735D01*
X025779Y003942D01*
X025779Y004870D01*
X025693Y005077D01*
X025535Y005235D01*
X025328Y005321D01*
X025105Y005321D01*
X024898Y005235D01*
X024740Y005077D01*
X024654Y004870D01*
X024654Y003942D01*
X024740Y003735D01*
X024898Y003577D01*
X025105Y003491D01*
X025348Y003499D02*
X027910Y003499D01*
X028008Y003598D02*
X025556Y003598D01*
X025655Y003696D02*
X028177Y003696D01*
X028377Y003795D02*
X025718Y003795D01*
X025759Y003893D02*
X032927Y003893D01*
X032927Y003795D02*
X029315Y003795D01*
X029516Y003696D02*
X032927Y003696D01*
X032927Y003598D02*
X029684Y003598D01*
X029783Y003499D02*
X032927Y003499D01*
X032927Y003401D02*
X029881Y003401D01*
X029961Y003302D02*
X032927Y003302D01*
X032927Y003204D02*
X030018Y003204D01*
X030075Y003105D02*
X032927Y003105D01*
X032927Y003007D02*
X030122Y003007D01*
X030148Y002908D02*
X032927Y002908D01*
X032927Y002810D02*
X030175Y002810D01*
X030201Y002711D02*
X032927Y002711D01*
X032927Y002613D02*
X030206Y002613D01*
X030206Y002514D02*
X032927Y002514D01*
X032927Y002416D02*
X030206Y002416D01*
X030202Y002317D02*
X032927Y002317D01*
X032927Y002219D02*
X030176Y002219D01*
X030149Y002120D02*
X032927Y002120D01*
X032927Y002022D02*
X030123Y002022D01*
X030077Y001923D02*
X032927Y001923D01*
X032927Y001825D02*
X030020Y001825D01*
X029963Y001726D02*
X032927Y001726D01*
X032927Y001628D02*
X029885Y001628D01*
X029787Y001529D02*
X032927Y001529D01*
X032927Y001431D02*
X029688Y001431D01*
X029522Y001332D02*
X032927Y001332D01*
X032921Y001234D02*
X029329Y001234D01*
X028364Y001234D02*
X025779Y001234D01*
X025779Y001332D02*
X028171Y001332D01*
X028005Y001431D02*
X025779Y001431D01*
X025779Y001529D02*
X027906Y001529D01*
X027808Y001628D02*
X025779Y001628D01*
X025779Y001726D02*
X027730Y001726D01*
X027673Y001825D02*
X025779Y001825D01*
X025757Y001923D02*
X027616Y001923D01*
X027570Y002022D02*
X025716Y002022D01*
X025650Y002120D02*
X027544Y002120D01*
X027517Y002219D02*
X025552Y002219D01*
X024881Y002219D02*
X023552Y002219D01*
X023650Y002120D02*
X024783Y002120D01*
X024717Y002022D02*
X023716Y002022D01*
X023757Y001923D02*
X024676Y001923D01*
X024654Y001825D02*
X023779Y001825D01*
X023779Y001726D02*
X024654Y001726D01*
X024654Y001628D02*
X023779Y001628D01*
X023779Y001529D02*
X024654Y001529D01*
X024654Y001431D02*
X023779Y001431D01*
X023779Y001332D02*
X024654Y001332D01*
X024654Y001234D02*
X023779Y001234D01*
X023779Y001135D02*
X024654Y001135D01*
X024654Y001037D02*
X023779Y001037D01*
X023778Y000938D02*
X024655Y000938D01*
X024696Y000840D02*
X023737Y000840D01*
X023696Y000741D02*
X024737Y000741D01*
X024832Y000643D02*
X023601Y000643D01*
X023457Y000544D02*
X024976Y000544D01*
X025457Y000544D02*
X032479Y000544D01*
X032613Y000643D02*
X025601Y000643D01*
X025696Y000741D02*
X032711Y000741D01*
X032778Y000840D02*
X025737Y000840D01*
X025778Y000938D02*
X032835Y000938D01*
X032873Y001037D02*
X025779Y001037D01*
X025779Y001135D02*
X032899Y001135D01*
X032258Y000446D02*
X002601Y000446D01*
X002506Y000471D02*
X002506Y000471D01*
X001959Y001135D02*
X010654Y001135D01*
X010654Y001234D02*
X001937Y001234D01*
X001931Y001332D02*
X010654Y001332D01*
X010654Y001431D02*
X001931Y001431D01*
X001931Y001529D02*
X010654Y001529D01*
X010654Y001628D02*
X001931Y001628D01*
X001931Y001726D02*
X010654Y001726D01*
X008197Y002514D02*
X027486Y002514D01*
X027486Y002613D02*
X008197Y002613D01*
X008165Y002711D02*
X027492Y002711D01*
X027518Y002810D02*
X008124Y002810D01*
X008053Y002908D02*
X027545Y002908D01*
X027571Y003007D02*
X007955Y003007D01*
X007749Y003105D02*
X027618Y003105D01*
X027675Y003204D02*
X006223Y003204D01*
X006223Y003302D02*
X027732Y003302D01*
X027811Y003401D02*
X006223Y003401D01*
X006223Y003499D02*
X011085Y003499D01*
X010877Y003598D02*
X006223Y003598D01*
X006223Y003696D02*
X010778Y003696D01*
X010715Y003795D02*
X006223Y003795D01*
X006223Y003893D02*
X010674Y003893D01*
X010654Y003992D02*
X006223Y003992D01*
X006223Y004090D02*
X010654Y004090D01*
X010654Y004189D02*
X006223Y004189D01*
X006223Y004287D02*
X010654Y004287D01*
X010654Y004386D02*
X006223Y004386D01*
X006223Y004484D02*
X010654Y004484D01*
X010654Y004583D02*
X006223Y004583D01*
X006223Y004681D02*
X010654Y004681D01*
X010654Y004780D02*
X006223Y004780D01*
X006223Y004878D02*
X010657Y004878D01*
X010698Y004977D02*
X006223Y004977D01*
X006223Y005075D02*
X010739Y005075D01*
X011446Y005272D02*
X012987Y005272D01*
X012898Y005235D02*
X012740Y005077D01*
X012654Y004870D01*
X012654Y003942D01*
X012740Y003735D01*
X012898Y003577D01*
X013105Y003491D01*
X013328Y003491D01*
X013535Y003577D01*
X013693Y003735D01*
X013779Y003942D01*
X013779Y004870D01*
X013693Y005077D01*
X013535Y005235D01*
X013328Y005321D01*
X013105Y005321D01*
X012898Y005235D01*
X012836Y005174D02*
X011597Y005174D01*
X011694Y005075D02*
X012739Y005075D01*
X012698Y004977D02*
X011735Y004977D01*
X011776Y004878D02*
X012657Y004878D01*
X012654Y004780D02*
X011779Y004780D01*
X011779Y004681D02*
X012654Y004681D01*
X012654Y004583D02*
X011779Y004583D01*
X011779Y004484D02*
X012654Y004484D01*
X012654Y004386D02*
X011779Y004386D01*
X011779Y004287D02*
X012654Y004287D01*
X012654Y004189D02*
X011779Y004189D01*
X011779Y004090D02*
X012654Y004090D01*
X012654Y003992D02*
X011779Y003992D01*
X011759Y003893D02*
X012674Y003893D01*
X012715Y003795D02*
X011718Y003795D01*
X011655Y003696D02*
X012778Y003696D01*
X012877Y003598D02*
X011556Y003598D01*
X011348Y003499D02*
X013085Y003499D01*
X013348Y003499D02*
X015085Y003499D01*
X015105Y003491D02*
X015328Y003491D01*
X015535Y003577D01*
X015693Y003735D01*
X015779Y003942D01*
X015779Y004870D01*
X015693Y005077D01*
X015535Y005235D01*
X015328Y005321D01*
X015105Y005321D01*
X014898Y005235D01*
X014740Y005077D01*
X014654Y004870D01*
X014654Y003942D01*
X014740Y003735D01*
X014898Y003577D01*
X015105Y003491D01*
X015348Y003499D02*
X017085Y003499D01*
X016877Y003598D02*
X015556Y003598D01*
X015655Y003696D02*
X016778Y003696D01*
X016715Y003795D02*
X015718Y003795D01*
X015759Y003893D02*
X016674Y003893D01*
X016654Y003992D02*
X015779Y003992D01*
X015779Y004090D02*
X016654Y004090D01*
X016654Y004189D02*
X015779Y004189D01*
X015779Y004287D02*
X016654Y004287D01*
X016654Y004386D02*
X015779Y004386D01*
X015779Y004484D02*
X016654Y004484D01*
X016654Y004583D02*
X015779Y004583D01*
X015779Y004681D02*
X016654Y004681D01*
X016654Y004780D02*
X015779Y004780D01*
X015776Y004878D02*
X016657Y004878D01*
X016698Y004977D02*
X015735Y004977D01*
X015694Y005075D02*
X016739Y005075D01*
X016836Y005174D02*
X015597Y005174D01*
X015446Y005272D02*
X016987Y005272D01*
X016982Y005469D02*
X018664Y005469D01*
X018565Y005568D02*
X017080Y005568D01*
X017152Y005666D02*
X018493Y005666D01*
X018453Y005765D02*
X017193Y005765D01*
X017222Y005863D02*
X018424Y005863D01*
X018424Y005962D02*
X017724Y005962D01*
X017823Y006060D02*
X018424Y006060D01*
X018463Y006159D02*
X017899Y006159D01*
X017940Y006257D02*
X018504Y006257D01*
X018590Y006356D02*
X017972Y006356D01*
X017972Y006454D02*
X018707Y006454D01*
X018665Y006553D02*
X017972Y006553D01*
X017936Y006651D02*
X018578Y006651D01*
X018522Y006750D02*
X017895Y006750D01*
X017813Y006848D02*
X018493Y006848D01*
X018484Y006979D02*
X018974Y006979D01*
X018974Y007469D01*
X018963Y007469D01*
X018882Y007456D01*
X018804Y007431D01*
X018731Y007394D01*
X018665Y007346D01*
X018607Y007288D01*
X018559Y007222D01*
X018522Y007149D01*
X018497Y007071D01*
X018484Y006990D01*
X018484Y006979D01*
X018493Y007045D02*
X017153Y007045D01*
X017125Y007144D02*
X018520Y007144D01*
X018574Y007242D02*
X017072Y007242D01*
X016986Y007341D02*
X018660Y007341D01*
X018829Y007439D02*
X016817Y007439D01*
X016672Y007439D02*
X016612Y007439D01*
X016612Y007469D02*
X016601Y007469D01*
X016520Y007456D01*
X016442Y007431D01*
X016369Y007394D01*
X016303Y007346D01*
X016245Y007288D01*
X016197Y007222D01*
X016160Y007149D01*
X016135Y007071D01*
X016122Y006990D01*
X016122Y006979D01*
X016612Y006979D01*
X016612Y007469D01*
X016612Y007341D02*
X016672Y007341D01*
X016672Y007242D02*
X016612Y007242D01*
X016612Y007144D02*
X016672Y007144D01*
X016672Y007045D02*
X016612Y007045D01*
X016612Y006947D02*
X015345Y006947D01*
X015451Y006848D02*
X016131Y006848D01*
X016160Y006750D02*
X015533Y006750D01*
X015574Y006651D02*
X016216Y006651D01*
X016303Y006553D02*
X015610Y006553D01*
X015610Y006454D02*
X016345Y006454D01*
X016228Y006356D02*
X015610Y006356D01*
X015578Y006257D02*
X016141Y006257D01*
X016101Y006159D02*
X015537Y006159D01*
X015461Y006060D02*
X016062Y006060D01*
X016062Y005962D02*
X015362Y005962D01*
X014860Y005863D02*
X016062Y005863D01*
X016090Y005765D02*
X014831Y005765D01*
X014790Y005666D02*
X016131Y005666D01*
X016203Y005568D02*
X014718Y005568D01*
X014620Y005469D02*
X016302Y005469D01*
X014987Y005272D02*
X013446Y005272D01*
X013597Y005174D02*
X014836Y005174D01*
X014739Y005075D02*
X013694Y005075D01*
X013735Y004977D02*
X014698Y004977D01*
X014657Y004878D02*
X013776Y004878D01*
X013779Y004780D02*
X014654Y004780D01*
X014654Y004681D02*
X013779Y004681D01*
X013779Y004583D02*
X014654Y004583D01*
X014654Y004484D02*
X013779Y004484D01*
X013779Y004386D02*
X014654Y004386D01*
X014654Y004287D02*
X013779Y004287D01*
X013779Y004189D02*
X014654Y004189D01*
X014654Y004090D02*
X013779Y004090D01*
X013779Y003992D02*
X014654Y003992D01*
X014674Y003893D02*
X013759Y003893D01*
X013718Y003795D02*
X014715Y003795D01*
X014778Y003696D02*
X013655Y003696D01*
X013556Y003598D02*
X014877Y003598D01*
X014881Y002219D02*
X013552Y002219D01*
X013650Y002120D02*
X014783Y002120D01*
X014717Y002022D02*
X013716Y002022D01*
X013757Y001923D02*
X014676Y001923D01*
X014654Y001825D02*
X013779Y001825D01*
X013779Y001726D02*
X014654Y001726D01*
X014654Y001628D02*
X013779Y001628D01*
X013779Y001529D02*
X014654Y001529D01*
X014654Y001431D02*
X013779Y001431D01*
X013779Y001332D02*
X014654Y001332D01*
X014654Y001234D02*
X013779Y001234D01*
X013779Y001135D02*
X014654Y001135D01*
X014654Y001037D02*
X013779Y001037D01*
X013778Y000938D02*
X014655Y000938D01*
X014696Y000840D02*
X013737Y000840D01*
X013696Y000741D02*
X014737Y000741D01*
X014832Y000643D02*
X013601Y000643D01*
X013457Y000544D02*
X014976Y000544D01*
X015457Y000544D02*
X016976Y000544D01*
X016832Y000643D02*
X015601Y000643D01*
X015696Y000741D02*
X016737Y000741D01*
X016696Y000840D02*
X015737Y000840D01*
X015778Y000938D02*
X016655Y000938D01*
X016654Y001037D02*
X015779Y001037D01*
X015779Y001135D02*
X016654Y001135D01*
X016654Y001234D02*
X015779Y001234D01*
X015779Y001332D02*
X016654Y001332D01*
X016654Y001431D02*
X015779Y001431D01*
X015779Y001529D02*
X016654Y001529D01*
X016654Y001628D02*
X015779Y001628D01*
X015779Y001726D02*
X016654Y001726D01*
X016654Y001825D02*
X015779Y001825D01*
X015757Y001923D02*
X016676Y001923D01*
X016717Y002022D02*
X015716Y002022D01*
X015650Y002120D02*
X016783Y002120D01*
X016881Y002219D02*
X015552Y002219D01*
X017552Y002219D02*
X018881Y002219D01*
X018783Y002120D02*
X017650Y002120D01*
X017716Y002022D02*
X018717Y002022D01*
X018676Y001923D02*
X017757Y001923D01*
X017779Y001825D02*
X018654Y001825D01*
X018654Y001726D02*
X017779Y001726D01*
X017779Y001628D02*
X018654Y001628D01*
X018654Y001529D02*
X017779Y001529D01*
X017779Y001431D02*
X018654Y001431D01*
X018654Y001332D02*
X017779Y001332D01*
X017779Y001234D02*
X018654Y001234D01*
X018654Y001135D02*
X017779Y001135D01*
X017779Y001037D02*
X018654Y001037D01*
X018655Y000938D02*
X017778Y000938D01*
X017737Y000840D02*
X018696Y000840D01*
X018737Y000741D02*
X017696Y000741D01*
X017601Y000643D02*
X018832Y000643D01*
X018976Y000544D02*
X017457Y000544D01*
X019457Y000544D02*
X020976Y000544D01*
X020832Y000643D02*
X019601Y000643D01*
X019696Y000741D02*
X020737Y000741D01*
X020696Y000840D02*
X019737Y000840D01*
X019778Y000938D02*
X020655Y000938D01*
X020654Y001037D02*
X019779Y001037D01*
X019779Y001135D02*
X020654Y001135D01*
X020654Y001234D02*
X019779Y001234D01*
X019779Y001332D02*
X020654Y001332D01*
X020654Y001431D02*
X019779Y001431D01*
X019779Y001529D02*
X020654Y001529D01*
X020654Y001628D02*
X019779Y001628D01*
X019779Y001726D02*
X020654Y001726D01*
X020654Y001825D02*
X019779Y001825D01*
X019757Y001923D02*
X020676Y001923D01*
X020717Y002022D02*
X019716Y002022D01*
X019650Y002120D02*
X020783Y002120D01*
X020881Y002219D02*
X019552Y002219D01*
X019348Y003499D02*
X021085Y003499D01*
X020877Y003598D02*
X019556Y003598D01*
X019655Y003696D02*
X020778Y003696D01*
X020715Y003795D02*
X019718Y003795D01*
X019759Y003893D02*
X020674Y003893D01*
X020654Y003992D02*
X019779Y003992D01*
X019779Y004090D02*
X020654Y004090D01*
X020654Y004189D02*
X019779Y004189D01*
X019779Y004287D02*
X020654Y004287D01*
X020654Y004386D02*
X019779Y004386D01*
X019779Y004484D02*
X020654Y004484D01*
X020654Y004583D02*
X019779Y004583D01*
X019779Y004681D02*
X020654Y004681D01*
X020654Y004780D02*
X019779Y004780D01*
X019776Y004878D02*
X020657Y004878D01*
X020698Y004977D02*
X019735Y004977D01*
X019694Y005075D02*
X020739Y005075D01*
X020836Y005174D02*
X019597Y005174D01*
X019446Y005272D02*
X020987Y005272D01*
X021026Y005469D02*
X019344Y005469D01*
X019442Y005568D02*
X020928Y005568D01*
X020856Y005666D02*
X019514Y005666D01*
X019555Y005765D02*
X020815Y005765D01*
X020786Y005863D02*
X019584Y005863D01*
X020086Y005962D02*
X020786Y005962D01*
X020786Y006060D02*
X020185Y006060D01*
X020261Y006159D02*
X020825Y006159D01*
X020866Y006257D02*
X020302Y006257D01*
X020334Y006356D02*
X020952Y006356D01*
X021069Y006454D02*
X020334Y006454D01*
X020334Y006553D02*
X021027Y006553D01*
X020940Y006651D02*
X020298Y006651D01*
X020257Y006750D02*
X020884Y006750D01*
X020856Y006848D02*
X020175Y006848D01*
X020069Y006947D02*
X021336Y006947D01*
X021336Y006979D02*
X020846Y006979D01*
X020846Y006990D01*
X020859Y007071D01*
X020884Y007149D01*
X020921Y007222D01*
X020970Y007288D01*
X021027Y007346D01*
X021094Y007394D01*
X021167Y007431D01*
X021244Y007456D01*
X021325Y007469D01*
X021336Y007469D01*
X021336Y006979D01*
X021336Y007045D02*
X021396Y007045D01*
X021396Y007144D02*
X021336Y007144D01*
X021336Y007242D02*
X021396Y007242D01*
X021396Y007341D02*
X021336Y007341D01*
X021336Y007439D02*
X021396Y007439D01*
X021541Y007439D02*
X023553Y007439D01*
X023529Y007431D02*
X023456Y007394D01*
X023390Y007346D01*
X023332Y007288D01*
X023284Y007222D01*
X023246Y007149D01*
X023221Y007071D01*
X023208Y006990D01*
X023208Y006979D01*
X023698Y006979D01*
X023698Y006919D01*
X023208Y006919D01*
X023208Y006908D01*
X023221Y006827D01*
X023246Y006750D01*
X023284Y006677D01*
X023332Y006610D01*
X023390Y006553D01*
X022696Y006553D01*
X022696Y006454D02*
X023431Y006454D01*
X023400Y006441D02*
X023237Y006278D01*
X023148Y006065D01*
X023148Y005834D01*
X023237Y005621D01*
X023400Y005458D01*
X023613Y005369D01*
X023844Y005369D01*
X024057Y005458D01*
X024220Y005621D01*
X024308Y005834D01*
X024308Y005892D01*
X024363Y005869D01*
X024594Y005869D01*
X024807Y005958D01*
X024970Y006121D01*
X025058Y006334D01*
X025058Y006565D01*
X024970Y006778D01*
X024807Y006941D01*
X024594Y007029D01*
X024363Y007029D01*
X024248Y006982D01*
X024248Y006990D01*
X024236Y007071D01*
X024210Y007149D01*
X024173Y007222D01*
X024125Y007288D01*
X024067Y007346D01*
X024001Y007394D01*
X023928Y007431D01*
X023850Y007456D01*
X023769Y007469D01*
X023758Y007469D01*
X023758Y006979D01*
X023698Y006979D01*
X023698Y007469D01*
X023687Y007469D01*
X023607Y007456D01*
X023529Y007431D01*
X023698Y007439D02*
X023758Y007439D01*
X023758Y007341D02*
X023698Y007341D01*
X023698Y007242D02*
X023758Y007242D01*
X023758Y007144D02*
X023698Y007144D01*
X023698Y007045D02*
X023758Y007045D01*
X023698Y006947D02*
X022431Y006947D01*
X022538Y006848D02*
X023218Y006848D01*
X023246Y006750D02*
X022620Y006750D01*
X022660Y006651D02*
X023302Y006651D01*
X023390Y006553D02*
X023456Y006504D01*
X023499Y006482D01*
X023400Y006441D01*
X023314Y006356D02*
X022696Y006356D01*
X022664Y006257D02*
X023228Y006257D01*
X023187Y006159D02*
X022624Y006159D01*
X022547Y006060D02*
X023148Y006060D01*
X023148Y005962D02*
X022449Y005962D01*
X021946Y005863D02*
X023148Y005863D01*
X023177Y005765D02*
X021917Y005765D01*
X021877Y005666D02*
X023218Y005666D01*
X023290Y005568D02*
X021805Y005568D01*
X021706Y005469D02*
X023388Y005469D01*
X023446Y005272D02*
X024987Y005272D01*
X024836Y005174D02*
X023597Y005174D01*
X023694Y005075D02*
X024739Y005075D01*
X024698Y004977D02*
X023735Y004977D01*
X023776Y004878D02*
X024657Y004878D01*
X024654Y004780D02*
X023779Y004780D01*
X023779Y004681D02*
X024654Y004681D01*
X024654Y004583D02*
X023779Y004583D01*
X023779Y004484D02*
X024654Y004484D01*
X024654Y004386D02*
X023779Y004386D01*
X023779Y004287D02*
X024654Y004287D01*
X024654Y004189D02*
X023779Y004189D01*
X023779Y004090D02*
X024654Y004090D01*
X024654Y003992D02*
X023779Y003992D01*
X023759Y003893D02*
X024674Y003893D01*
X024715Y003795D02*
X023718Y003795D01*
X023655Y003696D02*
X024778Y003696D01*
X024877Y003598D02*
X023556Y003598D01*
X022881Y002219D02*
X021552Y002219D01*
X021650Y002120D02*
X022783Y002120D01*
X022717Y002022D02*
X021716Y002022D01*
X021757Y001923D02*
X022676Y001923D01*
X022654Y001825D02*
X021779Y001825D01*
X021779Y001726D02*
X022654Y001726D01*
X022654Y001628D02*
X021779Y001628D01*
X021779Y001529D02*
X022654Y001529D01*
X022654Y001431D02*
X021779Y001431D01*
X021779Y001332D02*
X022654Y001332D01*
X022654Y001234D02*
X021779Y001234D01*
X021779Y001135D02*
X022654Y001135D01*
X022654Y001037D02*
X021779Y001037D01*
X021778Y000938D02*
X022655Y000938D01*
X022696Y000840D02*
X021737Y000840D01*
X021696Y000741D02*
X022737Y000741D01*
X022832Y000643D02*
X021601Y000643D01*
X021457Y000544D02*
X022976Y000544D01*
X019085Y003499D02*
X017348Y003499D01*
X017556Y003598D02*
X018877Y003598D01*
X018778Y003696D02*
X017655Y003696D01*
X017718Y003795D02*
X018715Y003795D01*
X018674Y003893D02*
X017759Y003893D01*
X017779Y003992D02*
X018654Y003992D01*
X018654Y004090D02*
X017779Y004090D01*
X017779Y004189D02*
X018654Y004189D01*
X018654Y004287D02*
X017779Y004287D01*
X017779Y004386D02*
X018654Y004386D01*
X018654Y004484D02*
X017779Y004484D01*
X017779Y004583D02*
X018654Y004583D01*
X018654Y004681D02*
X017779Y004681D01*
X017779Y004780D02*
X018654Y004780D01*
X018657Y004878D02*
X017776Y004878D01*
X017735Y004977D02*
X018698Y004977D01*
X018739Y005075D02*
X017694Y005075D01*
X017707Y006947D02*
X018974Y006947D01*
X018974Y007045D02*
X019034Y007045D01*
X019034Y007144D02*
X018974Y007144D01*
X018974Y007242D02*
X019034Y007242D01*
X019034Y007341D02*
X018974Y007341D01*
X018974Y007439D02*
X019034Y007439D01*
X019179Y007439D02*
X021191Y007439D01*
X021022Y007341D02*
X019348Y007341D01*
X019434Y007242D02*
X020936Y007242D01*
X020883Y007144D02*
X019488Y007144D01*
X019515Y007045D02*
X020855Y007045D01*
X020747Y007688D02*
X020560Y007688D01*
X020387Y007759D01*
X020255Y007891D01*
X020184Y008064D01*
X020184Y008771D01*
X020255Y008944D01*
X020387Y009076D01*
X020560Y009148D01*
X020747Y009148D01*
X020920Y009076D01*
X021052Y008944D01*
X021124Y008771D01*
X021124Y008064D01*
X021052Y007891D01*
X020920Y007759D01*
X020747Y007688D01*
X020860Y007735D02*
X021447Y007735D01*
X021387Y007759D02*
X021560Y007688D01*
X021747Y007688D01*
X021920Y007759D01*
X022052Y007891D01*
X022124Y008064D01*
X022124Y008771D01*
X022052Y008944D01*
X021920Y009076D01*
X021747Y009148D01*
X021560Y009148D01*
X021387Y009076D01*
X021255Y008944D01*
X021184Y008771D01*
X021184Y008064D01*
X021255Y007891D01*
X021387Y007759D01*
X021314Y007833D02*
X020994Y007833D01*
X021069Y007932D02*
X021239Y007932D01*
X021198Y008030D02*
X021109Y008030D01*
X021124Y008129D02*
X021184Y008129D01*
X021184Y008227D02*
X021124Y008227D01*
X021124Y008326D02*
X021184Y008326D01*
X021184Y008424D02*
X021124Y008424D01*
X021124Y008523D02*
X021184Y008523D01*
X021184Y008621D02*
X021124Y008621D01*
X021124Y008720D02*
X021184Y008720D01*
X021203Y008818D02*
X021104Y008818D01*
X021063Y008917D02*
X021244Y008917D01*
X021326Y009015D02*
X020981Y009015D01*
X020830Y009114D02*
X021478Y009114D01*
X021830Y009114D02*
X022478Y009114D01*
X022560Y009148D02*
X022387Y009076D01*
X022255Y008944D01*
X022184Y008771D01*
X022184Y008064D01*
X022255Y007891D01*
X022387Y007759D01*
X022560Y007688D01*
X022747Y007688D01*
X022920Y007759D01*
X023052Y007891D01*
X023124Y008064D01*
X023124Y008771D01*
X023052Y008944D01*
X022920Y009076D01*
X022747Y009148D01*
X022560Y009148D01*
X022326Y009015D02*
X021981Y009015D01*
X022063Y008917D02*
X022244Y008917D01*
X022203Y008818D02*
X022104Y008818D01*
X022124Y008720D02*
X022184Y008720D01*
X022184Y008621D02*
X022124Y008621D01*
X022124Y008523D02*
X022184Y008523D01*
X022184Y008424D02*
X022124Y008424D01*
X022124Y008326D02*
X022184Y008326D01*
X022184Y008227D02*
X022124Y008227D01*
X022124Y008129D02*
X022184Y008129D01*
X022198Y008030D02*
X022109Y008030D01*
X022069Y007932D02*
X022239Y007932D01*
X022314Y007833D02*
X021994Y007833D01*
X021860Y007735D02*
X022447Y007735D01*
X022860Y007735D02*
X023447Y007735D01*
X023387Y007759D02*
X023560Y007688D01*
X023747Y007688D01*
X023920Y007759D01*
X024052Y007891D01*
X024124Y008064D01*
X024124Y008771D01*
X024052Y008944D01*
X023920Y009076D01*
X023747Y009148D01*
X023560Y009148D01*
X023387Y009076D01*
X023255Y008944D01*
X023184Y008771D01*
X023184Y008064D01*
X023255Y007891D01*
X023387Y007759D01*
X023314Y007833D02*
X022994Y007833D01*
X023069Y007932D02*
X023239Y007932D01*
X023198Y008030D02*
X023109Y008030D01*
X023124Y008129D02*
X023184Y008129D01*
X023184Y008227D02*
X023124Y008227D01*
X023124Y008326D02*
X023184Y008326D01*
X023184Y008424D02*
X023124Y008424D01*
X023124Y008523D02*
X023184Y008523D01*
X023184Y008621D02*
X023124Y008621D01*
X023124Y008720D02*
X023184Y008720D01*
X023203Y008818D02*
X023104Y008818D01*
X023063Y008917D02*
X023244Y008917D01*
X023326Y009015D02*
X022981Y009015D01*
X022830Y009114D02*
X023478Y009114D01*
X023830Y009114D02*
X024478Y009114D01*
X024560Y009148D02*
X024387Y009076D01*
X024255Y008944D01*
X024184Y008771D01*
X024184Y008064D01*
X024255Y007891D01*
X024387Y007759D01*
X024560Y007688D01*
X024747Y007688D01*
X024920Y007759D01*
X025052Y007891D01*
X025124Y008064D01*
X025124Y008771D01*
X025052Y008944D01*
X024920Y009076D01*
X024747Y009148D01*
X024560Y009148D01*
X024326Y009015D02*
X023981Y009015D01*
X024063Y008917D02*
X024244Y008917D01*
X024203Y008818D02*
X024104Y008818D01*
X024124Y008720D02*
X024184Y008720D01*
X024184Y008621D02*
X024124Y008621D01*
X024124Y008523D02*
X024184Y008523D01*
X024184Y008424D02*
X024124Y008424D01*
X024124Y008326D02*
X024184Y008326D01*
X024184Y008227D02*
X024124Y008227D01*
X024124Y008129D02*
X024184Y008129D01*
X024198Y008030D02*
X024109Y008030D01*
X024069Y007932D02*
X024239Y007932D01*
X024314Y007833D02*
X023994Y007833D01*
X023860Y007735D02*
X024447Y007735D01*
X024860Y007735D02*
X025447Y007735D01*
X025387Y007759D02*
X025560Y007688D01*
X025747Y007688D01*
X025920Y007759D01*
X025925Y007764D01*
X026243Y007446D01*
X026212Y007456D01*
X026131Y007469D01*
X026121Y007469D01*
X026121Y006979D01*
X026061Y006979D01*
X026061Y007469D01*
X026050Y007469D01*
X025969Y007456D01*
X025891Y007431D01*
X025818Y007394D01*
X025752Y007346D01*
X025694Y007288D01*
X025646Y007222D01*
X025609Y007149D01*
X025583Y007071D01*
X025571Y006990D01*
X025571Y006979D01*
X026061Y006979D01*
X026061Y006919D01*
X025571Y006919D01*
X025571Y006908D01*
X025583Y006827D01*
X025609Y006750D01*
X025646Y006677D01*
X025694Y006610D01*
X025752Y006553D01*
X025818Y006504D01*
X025862Y006482D01*
X025762Y006441D01*
X025599Y006278D01*
X025511Y006065D01*
X025511Y005834D01*
X025599Y005621D01*
X025762Y005458D01*
X025975Y005369D01*
X026206Y005369D01*
X026419Y005458D01*
X026582Y005621D01*
X026671Y005834D01*
X026671Y005892D01*
X026725Y005869D01*
X026956Y005869D01*
X027169Y005958D01*
X027332Y006121D01*
X027421Y006334D01*
X027421Y006565D01*
X027332Y006778D01*
X027169Y006941D01*
X027111Y006965D01*
X027111Y007284D01*
X027069Y007384D01*
X026993Y007460D01*
X026124Y008330D01*
X026124Y008771D01*
X026052Y008944D01*
X025920Y009076D01*
X025747Y009148D01*
X025560Y009148D01*
X025387Y009076D01*
X025255Y008944D01*
X025184Y008771D01*
X025184Y008064D01*
X025255Y007891D01*
X025387Y007759D01*
X025314Y007833D02*
X024994Y007833D01*
X025069Y007932D02*
X025239Y007932D01*
X025198Y008030D02*
X025109Y008030D01*
X025124Y008129D02*
X025184Y008129D01*
X025184Y008227D02*
X025124Y008227D01*
X025124Y008326D02*
X025184Y008326D01*
X025184Y008424D02*
X025124Y008424D01*
X025124Y008523D02*
X025184Y008523D01*
X025184Y008621D02*
X025124Y008621D01*
X025124Y008720D02*
X025184Y008720D01*
X025203Y008818D02*
X025104Y008818D01*
X025063Y008917D02*
X025244Y008917D01*
X025326Y009015D02*
X024981Y009015D01*
X024830Y009114D02*
X025478Y009114D01*
X025830Y009114D02*
X029633Y009114D01*
X029535Y009212D02*
X009169Y009212D01*
X009183Y009262D02*
X009090Y008916D01*
X008911Y008606D01*
X008658Y008353D01*
X008348Y008174D01*
X008002Y008081D01*
X007644Y008081D01*
X007298Y008174D01*
X006988Y008353D01*
X006735Y008606D01*
X006556Y008916D01*
X006463Y009262D01*
X006463Y009620D01*
X006556Y009966D01*
X006735Y010276D01*
X006988Y010530D01*
X007298Y010709D01*
X007644Y010801D01*
X008002Y010801D01*
X008348Y010709D01*
X008658Y010530D01*
X008911Y010276D01*
X009090Y009966D01*
X009183Y009620D01*
X009183Y009262D01*
X009183Y009311D02*
X029436Y009311D01*
X029338Y009409D02*
X009183Y009409D01*
X009183Y009508D02*
X029239Y009508D01*
X029141Y009606D02*
X009183Y009606D01*
X009160Y009705D02*
X029052Y009705D01*
X029059Y009688D02*
X029132Y009615D01*
X030353Y008394D01*
X030448Y008355D01*
X031453Y008355D01*
X031549Y008394D01*
X031622Y008467D01*
X031733Y008579D01*
X031802Y008550D01*
X032033Y008550D01*
X032246Y008639D01*
X032409Y008802D01*
X032497Y009015D01*
X032927Y009015D01*
X032927Y008917D02*
X032457Y008917D01*
X032497Y009015D02*
X032497Y009246D01*
X032409Y009459D01*
X032246Y009622D01*
X032033Y009710D01*
X031802Y009710D01*
X031589Y009622D01*
X031426Y009459D01*
X031366Y009315D01*
X031307Y009459D01*
X031144Y009622D01*
X031075Y009650D01*
X031075Y010989D01*
X031035Y011085D01*
X026036Y016084D01*
X026036Y017674D01*
X026106Y017703D01*
X026262Y017859D01*
X026291Y017930D01*
X026321Y017859D01*
X026477Y017703D01*
X026681Y017619D01*
X026902Y017619D01*
X027106Y017703D01*
X027262Y017859D01*
X027291Y017930D01*
X027321Y017859D01*
X027477Y017703D01*
X027681Y017619D01*
X027902Y017619D01*
X028106Y017703D01*
X028262Y017859D01*
X028324Y018010D01*
X028333Y017984D01*
X028368Y017914D01*
X028414Y017851D01*
X028469Y017796D01*
X028532Y017750D01*
X028601Y017715D01*
X028675Y017691D01*
X028752Y017679D01*
X028754Y017679D01*
X028754Y018136D01*
X028829Y018136D01*
X028829Y017679D01*
X028830Y017679D01*
X028907Y017691D01*
X028981Y017715D01*
X029051Y017750D01*
X029114Y017796D01*
X029169Y017851D01*
X029215Y017914D01*
X029250Y017984D01*
X029259Y018010D01*
X029321Y017859D01*
X029477Y017703D01*
X029681Y017619D01*
X029902Y017619D01*
X030106Y017703D01*
X030262Y017859D01*
X030346Y018063D01*
X030346Y018284D01*
X030262Y018488D01*
X030106Y018644D01*
X029902Y018729D01*
X029681Y018729D01*
X029477Y018644D01*
X029321Y018488D01*
X029259Y018338D01*
X029250Y018364D01*
X029215Y018433D01*
X029169Y018496D01*
X029114Y018551D01*
X029051Y018597D01*
X028981Y018632D01*
X028907Y018656D01*
X028830Y018669D01*
X028829Y018669D01*
X028829Y018211D01*
X028754Y018211D01*
X028754Y018669D01*
X028752Y018669D01*
X028675Y018656D01*
X028601Y018632D01*
X028532Y018597D01*
X028469Y018551D01*
X028414Y018496D01*
X028368Y018433D01*
X028333Y018364D01*
X028324Y018338D01*
X028262Y018488D01*
X028106Y018644D01*
X027902Y018729D01*
X027681Y018729D01*
X027477Y018644D01*
X027321Y018488D01*
X027291Y018417D01*
X027262Y018488D01*
X027106Y018644D01*
X026902Y018729D01*
X026681Y018729D01*
X026477Y018644D01*
X026321Y018488D01*
X026291Y018417D01*
X026262Y018488D01*
X026106Y018644D01*
X025902Y018729D01*
X025681Y018729D01*
X025477Y018644D01*
X025321Y018488D01*
X025291Y018417D01*
X025262Y018488D01*
X025106Y018644D01*
X024902Y018729D01*
X024681Y018729D01*
X024477Y018644D01*
X024321Y018488D01*
X024291Y018417D01*
X024262Y018488D01*
X024106Y018644D01*
X023902Y018729D01*
X023681Y018729D01*
X023477Y018644D01*
X023321Y018488D01*
X023291Y018417D01*
X023262Y018488D01*
X023106Y018644D01*
X022902Y018729D01*
X022681Y018729D01*
X022477Y018644D01*
X022321Y018488D01*
X022291Y018417D01*
X022262Y018488D01*
X022106Y018644D01*
X021902Y018729D01*
X021681Y018729D01*
X021477Y018644D01*
X021321Y018488D01*
X021291Y018417D01*
X021262Y018488D01*
X021106Y018644D01*
X020902Y018729D01*
X020681Y018729D01*
X020477Y018644D01*
X020321Y018488D01*
X020291Y018417D01*
X020262Y018488D01*
X020106Y018644D01*
X019902Y018729D01*
X019681Y018729D01*
X019477Y018644D01*
X019321Y018488D01*
X019291Y018417D01*
X019262Y018488D01*
X019106Y018644D01*
X018902Y018729D01*
X018681Y018729D01*
X018477Y018644D01*
X018321Y018488D01*
X018236Y018284D01*
X018236Y018063D01*
X018321Y017859D01*
X018477Y017703D01*
X018681Y017619D01*
X018902Y017619D01*
X019106Y017703D01*
X019262Y017859D01*
X019291Y017930D01*
X019321Y017859D01*
X019477Y017703D01*
X019681Y017619D01*
X019902Y017619D01*
X020106Y017703D01*
X020262Y017859D01*
X020291Y017930D01*
X020321Y017859D01*
X020477Y017703D01*
X020681Y017619D01*
X020902Y017619D01*
X021106Y017703D01*
X021262Y017859D01*
X021291Y017930D01*
X021321Y017859D01*
X021477Y017703D01*
X021681Y017619D01*
X021902Y017619D01*
X022106Y017703D01*
X022262Y017859D01*
X022291Y017930D01*
X022321Y017859D01*
X022477Y017703D01*
X022681Y017619D01*
X022902Y017619D01*
X023106Y017703D01*
X023262Y017859D01*
X023291Y017930D01*
X023321Y017859D01*
X023477Y017703D01*
X023681Y017619D01*
X023902Y017619D01*
X024106Y017703D01*
X024262Y017859D01*
X024291Y017930D01*
X024321Y017859D01*
X024477Y017703D01*
X024531Y017681D01*
X024531Y016476D01*
X024571Y016381D01*
X024644Y016308D01*
X029020Y011932D01*
X029020Y011680D01*
X028902Y011729D01*
X028681Y011729D01*
X028477Y011644D01*
X028321Y011488D01*
X028291Y011417D01*
X028262Y011488D01*
X028106Y011644D01*
X027902Y011729D01*
X027681Y011729D01*
X027477Y011644D01*
X027321Y011488D01*
X027259Y011338D01*
X027250Y011364D01*
X027215Y011433D01*
X027169Y011496D01*
X027114Y011551D01*
X027051Y011597D01*
X026981Y011632D01*
X026907Y011656D01*
X026830Y011669D01*
X026829Y011669D01*
X026829Y011211D01*
X026754Y011211D01*
X026754Y011669D01*
X026752Y011669D01*
X026675Y011656D01*
X026601Y011632D01*
X026532Y011597D01*
X026469Y011551D01*
X026414Y011496D01*
X026368Y011433D01*
X026333Y011364D01*
X026324Y011338D01*
X026262Y011488D01*
X026106Y011644D01*
X025902Y011729D01*
X025681Y011729D01*
X025477Y011644D01*
X025321Y011488D01*
X025291Y011417D01*
X025262Y011488D01*
X025106Y011644D01*
X024902Y011729D01*
X024681Y011729D01*
X024477Y011644D01*
X024321Y011488D01*
X024291Y011417D01*
X024262Y011488D01*
X024106Y011644D01*
X023902Y011729D01*
X023681Y011729D01*
X023477Y011644D01*
X023321Y011488D01*
X023291Y011417D01*
X023262Y011488D01*
X023106Y011644D01*
X022902Y011729D01*
X022681Y011729D01*
X022477Y011644D01*
X022321Y011488D01*
X022291Y011417D01*
X022262Y011488D01*
X022106Y011644D01*
X021902Y011729D01*
X021681Y011729D01*
X021477Y011644D01*
X021321Y011488D01*
X021291Y011417D01*
X021262Y011488D01*
X021106Y011644D01*
X020902Y011729D01*
X020681Y011729D01*
X020477Y011644D01*
X020321Y011488D01*
X020291Y011417D01*
X020262Y011488D01*
X020106Y011644D01*
X019902Y011729D01*
X019681Y011729D01*
X019477Y011644D01*
X019321Y011488D01*
X019291Y011417D01*
X019262Y011488D01*
X019106Y011644D01*
X018902Y011729D01*
X018681Y011729D01*
X018477Y011644D01*
X018321Y011488D01*
X018236Y011284D01*
X018236Y011063D01*
X018321Y010859D01*
X018477Y010703D01*
X018681Y010619D01*
X018902Y010619D01*
X019106Y010703D01*
X019262Y010859D01*
X019291Y010930D01*
X019321Y010859D01*
X019477Y010703D01*
X019681Y010619D01*
X019902Y010619D01*
X020106Y010703D01*
X020262Y010859D01*
X020291Y010930D01*
X020321Y010859D01*
X020477Y010703D01*
X020681Y010619D01*
X020902Y010619D01*
X021106Y010703D01*
X021262Y010859D01*
X021291Y010930D01*
X021321Y010859D01*
X021477Y010703D01*
X021681Y010619D01*
X021902Y010619D01*
X022106Y010703D01*
X022262Y010859D01*
X022291Y010930D01*
X022321Y010859D01*
X022477Y010703D01*
X022681Y010619D01*
X022902Y010619D01*
X023106Y010703D01*
X023262Y010859D01*
X023291Y010930D01*
X023321Y010859D01*
X023477Y010703D01*
X023681Y010619D01*
X023902Y010619D01*
X024106Y010703D01*
X024262Y010859D01*
X024291Y010930D01*
X024321Y010859D01*
X024477Y010703D01*
X024681Y010619D01*
X024902Y010619D01*
X025106Y010703D01*
X025262Y010859D01*
X025291Y010930D01*
X025321Y010859D01*
X025477Y010703D01*
X025681Y010619D01*
X025902Y010619D01*
X026106Y010703D01*
X026262Y010859D01*
X026324Y011010D01*
X026333Y010984D01*
X026368Y010914D01*
X026414Y010851D01*
X026469Y010796D01*
X026532Y010750D01*
X026601Y010715D01*
X026675Y010691D01*
X026752Y010679D01*
X026754Y010679D01*
X026754Y011136D01*
X026829Y011136D01*
X026829Y010679D01*
X026830Y010679D01*
X026907Y010691D01*
X026981Y010715D01*
X027051Y010750D01*
X027114Y010796D01*
X027169Y010851D01*
X027215Y010914D01*
X027250Y010984D01*
X027259Y011010D01*
X027321Y010859D01*
X027477Y010703D01*
X027681Y010619D01*
X027902Y010619D01*
X028106Y010703D01*
X028262Y010859D01*
X028291Y010930D01*
X028321Y010859D01*
X028477Y010703D01*
X028681Y010619D01*
X028902Y010619D01*
X029020Y010667D01*
X029020Y009783D01*
X029059Y009688D01*
X029020Y009803D02*
X009134Y009803D01*
X009108Y009902D02*
X029020Y009902D01*
X029020Y010000D02*
X009071Y010000D01*
X009014Y010099D02*
X029020Y010099D01*
X029020Y010197D02*
X008957Y010197D01*
X008892Y010296D02*
X029020Y010296D01*
X029020Y010394D02*
X008793Y010394D01*
X008695Y010493D02*
X029020Y010493D01*
X029020Y010591D02*
X008552Y010591D01*
X008381Y010690D02*
X018510Y010690D01*
X018392Y010788D02*
X008052Y010788D01*
X007594Y010788D02*
X004651Y010788D01*
X004584Y010854D02*
X004371Y010943D01*
X004141Y010943D01*
X003927Y010854D01*
X003764Y010691D01*
X003723Y010591D01*
X003701Y010635D01*
X003653Y010701D01*
X003595Y010759D01*
X003528Y010807D01*
X003456Y010844D01*
X003378Y010870D01*
X003306Y010881D01*
X003306Y010043D01*
X003206Y010043D01*
X003206Y010881D01*
X003134Y010870D01*
X003056Y010844D01*
X002983Y010807D01*
X002917Y010759D01*
X002859Y010701D01*
X002811Y010635D01*
X002774Y010562D01*
X002749Y010484D01*
X002736Y010403D01*
X002736Y010043D01*
X003206Y010043D01*
X003206Y009943D01*
X002736Y009943D01*
X002736Y009582D01*
X002749Y009501D01*
X002774Y009423D01*
X002811Y009350D01*
X002859Y009284D01*
X002917Y009226D01*
X002983Y009178D01*
X003056Y009141D01*
X003134Y009115D01*
X003206Y009104D01*
X003206Y009943D01*
X003306Y009943D01*
X003306Y009104D01*
X003378Y009115D01*
X003456Y009141D01*
X003528Y009178D01*
X003595Y009226D01*
X003653Y009284D01*
X003701Y009350D01*
X003723Y009394D01*
X003764Y009294D01*
X003927Y009131D01*
X004141Y009043D01*
X004371Y009043D01*
X004584Y009131D01*
X004748Y009294D01*
X004836Y009507D01*
X004836Y010478D01*
X004748Y010691D01*
X004584Y010854D01*
X004506Y010887D02*
X018310Y010887D01*
X018269Y010985D02*
X001931Y010985D01*
X001931Y010887D02*
X004005Y010887D01*
X003861Y010788D02*
X003555Y010788D01*
X003661Y010690D02*
X003764Y010690D01*
X003306Y010690D02*
X003206Y010690D01*
X003206Y010788D02*
X003306Y010788D01*
X003306Y010591D02*
X003206Y010591D01*
X003206Y010493D02*
X003306Y010493D01*
X003306Y010394D02*
X003206Y010394D01*
X003206Y010296D02*
X003306Y010296D01*
X003306Y010197D02*
X003206Y010197D01*
X003206Y010099D02*
X003306Y010099D01*
X003206Y010000D02*
X001931Y010000D01*
X001931Y009902D02*
X002736Y009902D01*
X002736Y009803D02*
X001931Y009803D01*
X001931Y009705D02*
X002736Y009705D01*
X002736Y009606D02*
X001931Y009606D01*
X001931Y009508D02*
X002748Y009508D01*
X002781Y009409D02*
X001931Y009409D01*
X001931Y009311D02*
X002840Y009311D01*
X002936Y009212D02*
X001931Y009212D01*
X001931Y009114D02*
X003146Y009114D01*
X003206Y009114D02*
X003306Y009114D01*
X003366Y009114D02*
X003969Y009114D01*
X003846Y009212D02*
X003576Y009212D01*
X003672Y009311D02*
X003757Y009311D01*
X003306Y009311D02*
X003206Y009311D01*
X003206Y009409D02*
X003306Y009409D01*
X003306Y009508D02*
X003206Y009508D01*
X003206Y009606D02*
X003306Y009606D01*
X003306Y009705D02*
X003206Y009705D01*
X003206Y009803D02*
X003306Y009803D01*
X003306Y009902D02*
X003206Y009902D01*
X002736Y010099D02*
X001931Y010099D01*
X001931Y010197D02*
X002736Y010197D01*
X002736Y010296D02*
X001931Y010296D01*
X001931Y010394D02*
X002736Y010394D01*
X002751Y010493D02*
X001931Y010493D01*
X001931Y010591D02*
X002789Y010591D01*
X002851Y010690D02*
X001931Y010690D01*
X001931Y010788D02*
X002957Y010788D01*
X001931Y011084D02*
X018236Y011084D01*
X018236Y011182D02*
X001931Y011182D01*
X001931Y011281D02*
X018236Y011281D01*
X018276Y011379D02*
X001931Y011379D01*
X001931Y011478D02*
X005199Y011478D01*
X005207Y011469D02*
X005420Y011381D01*
X005651Y011381D01*
X005864Y011469D01*
X006027Y011632D01*
X006115Y011846D01*
X006115Y012076D01*
X006027Y012290D01*
X005940Y012377D01*
X006127Y012377D01*
X006340Y012465D01*
X006504Y012629D01*
X006592Y012842D01*
X006592Y013072D01*
X006504Y013286D01*
X006340Y013449D01*
X006241Y013490D01*
X006284Y013512D01*
X006351Y013560D01*
X006408Y013618D01*
X006457Y013685D01*
X006494Y013757D01*
X006519Y013835D01*
X006532Y013916D01*
X006532Y013927D01*
X006042Y013927D01*
X006042Y013987D01*
X006532Y013987D01*
X006532Y013998D01*
X006519Y014079D01*
X006494Y014157D01*
X006457Y014230D01*
X006408Y014296D01*
X006351Y014354D01*
X006284Y014402D01*
X006211Y014439D01*
X006134Y014464D01*
X006053Y014477D01*
X006042Y014477D01*
X006042Y013987D01*
X005982Y013987D01*
X005982Y014477D01*
X005971Y014477D01*
X005890Y014464D01*
X005812Y014439D01*
X005739Y014402D01*
X005673Y014354D01*
X005615Y014296D01*
X005567Y014230D01*
X005530Y014157D01*
X005505Y014079D01*
X005492Y013998D01*
X005492Y013987D01*
X005982Y013987D01*
X005982Y013927D01*
X005492Y013927D01*
X005492Y013916D01*
X005505Y013835D01*
X005530Y013757D01*
X005567Y013685D01*
X005615Y013618D01*
X005673Y013560D01*
X005739Y013512D01*
X005783Y013490D01*
X005683Y013449D01*
X005520Y013286D01*
X005432Y013072D01*
X005432Y012842D01*
X005520Y012629D01*
X005608Y012541D01*
X005420Y012541D01*
X005207Y012453D01*
X005044Y012290D01*
X004955Y012076D01*
X004955Y011846D01*
X005044Y011632D01*
X005207Y011469D01*
X005100Y011576D02*
X001931Y011576D01*
X001931Y011675D02*
X005026Y011675D01*
X004986Y011773D02*
X001931Y011773D01*
X001931Y011872D02*
X004955Y011872D01*
X004955Y011970D02*
X001931Y011970D01*
X001931Y012069D02*
X004955Y012069D01*
X004993Y012167D02*
X001931Y012167D01*
X001931Y012266D02*
X005034Y012266D01*
X005118Y012364D02*
X001931Y012364D01*
X001931Y012463D02*
X005231Y012463D01*
X005507Y012660D02*
X001931Y012660D01*
X001931Y012758D02*
X005466Y012758D01*
X005432Y012857D02*
X001931Y012857D01*
X001931Y012955D02*
X005432Y012955D01*
X005432Y013054D02*
X003614Y013054D01*
X003562Y013001D02*
X003685Y013124D01*
X003685Y013435D01*
X003686Y013425D01*
X003709Y013353D01*
X003743Y013287D01*
X003787Y013226D01*
X003840Y013174D01*
X003901Y013130D01*
X003967Y013096D01*
X004038Y013073D01*
X004112Y013061D01*
X004131Y013061D01*
X004131Y013517D01*
X004169Y013517D01*
X004169Y013555D01*
X004625Y013555D01*
X004625Y013573D01*
X004613Y013647D01*
X004590Y013718D01*
X004556Y013785D01*
X004512Y013845D01*
X004459Y013898D01*
X004399Y013942D01*
X004332Y013976D01*
X004261Y013999D01*
X004187Y014011D01*
X004169Y014011D01*
X004169Y013555D01*
X004131Y013555D01*
X004131Y014011D01*
X004112Y014011D01*
X004038Y013999D01*
X003967Y013976D01*
X003901Y013942D01*
X003840Y013898D01*
X003787Y013845D01*
X003743Y013785D01*
X003709Y013718D01*
X003686Y013647D01*
X003685Y013636D01*
X003685Y013948D01*
X003562Y014071D01*
X002738Y014071D01*
X002615Y013948D01*
X002615Y013124D01*
X002738Y013001D01*
X003562Y013001D01*
X003685Y013152D02*
X003870Y013152D01*
X003770Y013251D02*
X003685Y013251D01*
X003685Y013349D02*
X003712Y013349D01*
X003685Y013645D02*
X003686Y013645D01*
X003685Y013743D02*
X003722Y013743D01*
X003685Y013842D02*
X003785Y013842D01*
X003685Y013940D02*
X003898Y013940D01*
X004131Y013940D02*
X004169Y013940D01*
X004169Y013842D02*
X004131Y013842D01*
X004131Y013743D02*
X004169Y013743D01*
X004169Y013645D02*
X004131Y013645D01*
X004169Y013546D02*
X005693Y013546D01*
X005682Y013448D02*
X004617Y013448D01*
X004613Y013425D02*
X004625Y013498D01*
X004625Y013517D01*
X004169Y013517D01*
X004169Y013061D01*
X004187Y013061D01*
X004261Y013073D01*
X004332Y013096D01*
X004399Y013130D01*
X004459Y013174D01*
X004512Y013226D01*
X004556Y013287D01*
X004590Y013353D01*
X004613Y013425D01*
X004588Y013349D02*
X005584Y013349D01*
X005506Y013251D02*
X004529Y013251D01*
X004429Y013152D02*
X005465Y013152D01*
X005596Y013645D02*
X004613Y013645D01*
X004577Y013743D02*
X005537Y013743D01*
X005504Y013842D02*
X004515Y013842D01*
X004401Y013940D02*
X005982Y013940D01*
X006042Y013940D02*
X007522Y013940D01*
X007498Y013999D02*
X007595Y013764D01*
X007775Y013584D01*
X008010Y013486D01*
X008265Y013486D01*
X008500Y013584D01*
X008680Y013764D01*
X008778Y013999D01*
X008778Y014254D01*
X008680Y014489D01*
X008500Y014669D01*
X008265Y014766D01*
X008010Y014766D01*
X007938Y014736D01*
X006176Y016498D01*
X006069Y016542D01*
X005311Y016542D01*
X005381Y016711D01*
X005381Y017514D01*
X005303Y017702D01*
X005160Y017845D01*
X004972Y017923D01*
X004769Y017923D01*
X004582Y017845D01*
X004438Y017702D01*
X004361Y017514D01*
X004361Y016857D01*
X004041Y017177D01*
X004041Y017514D01*
X003963Y017702D01*
X003820Y017845D01*
X003632Y017923D01*
X003429Y017923D01*
X003242Y017845D01*
X003098Y017702D01*
X003021Y017514D01*
X003021Y016711D01*
X003098Y016524D01*
X003242Y016380D01*
X003429Y016303D01*
X003632Y016303D01*
X003820Y016380D01*
X003918Y016479D01*
X004251Y016147D01*
X004251Y015523D01*
X004651Y015523D01*
X004651Y015808D01*
X004640Y015878D01*
X004618Y015946D01*
X004609Y015962D01*
X005132Y015962D01*
X005124Y015946D01*
X005102Y015878D01*
X005091Y015808D01*
X005091Y015523D01*
X005491Y015523D01*
X005491Y015423D01*
X005591Y015423D01*
X005591Y015523D01*
X005991Y015523D01*
X005991Y015808D01*
X005980Y015874D01*
X007528Y014326D01*
X007498Y014254D01*
X007498Y013999D01*
X007498Y014039D02*
X006525Y014039D01*
X006500Y014137D02*
X007498Y014137D01*
X007498Y014236D02*
X006452Y014236D01*
X006370Y014334D02*
X007520Y014334D01*
X007422Y014433D02*
X006224Y014433D01*
X006042Y014433D02*
X005982Y014433D01*
X005982Y014334D02*
X006042Y014334D01*
X006042Y014236D02*
X005982Y014236D01*
X005982Y014137D02*
X006042Y014137D01*
X006042Y014039D02*
X005982Y014039D01*
X005571Y014236D02*
X001931Y014236D01*
X001931Y014334D02*
X005653Y014334D01*
X005800Y014433D02*
X001931Y014433D01*
X001931Y014531D02*
X007323Y014531D01*
X007225Y014630D02*
X001931Y014630D01*
X001931Y014728D02*
X002602Y014728D01*
X002572Y014740D02*
X002759Y014663D01*
X002962Y014663D01*
X003150Y014740D01*
X003293Y014884D01*
X003371Y015071D01*
X003371Y015874D01*
X003293Y016062D01*
X003150Y016205D01*
X002962Y016283D01*
X002759Y016283D01*
X002572Y016205D01*
X002428Y016062D01*
X002351Y015874D01*
X002351Y015071D01*
X002428Y014884D01*
X002572Y014740D01*
X002486Y014827D02*
X001931Y014827D01*
X001931Y014925D02*
X002411Y014925D01*
X002371Y015024D02*
X001931Y015024D01*
X001931Y015122D02*
X002351Y015122D01*
X002351Y015221D02*
X001931Y015221D01*
X001931Y015319D02*
X002351Y015319D01*
X002351Y015418D02*
X001931Y015418D01*
X001931Y015516D02*
X002351Y015516D01*
X002351Y015615D02*
X001931Y015615D01*
X001931Y015713D02*
X002351Y015713D01*
X002351Y015812D02*
X001931Y015812D01*
X001931Y015910D02*
X002366Y015910D01*
X002406Y016009D02*
X001931Y016009D01*
X001931Y016107D02*
X002474Y016107D01*
X002573Y016206D02*
X001931Y016206D01*
X001931Y016304D02*
X003426Y016304D01*
X003635Y016304D02*
X004093Y016304D01*
X004095Y016212D02*
X004028Y016190D01*
X003965Y016158D01*
X003908Y016116D01*
X003858Y016066D01*
X003816Y016009D01*
X003784Y015946D01*
X003762Y015878D01*
X003751Y015808D01*
X003751Y015523D01*
X004151Y015523D01*
X004151Y016221D01*
X004095Y016212D01*
X004076Y016206D02*
X003149Y016206D01*
X003248Y016107D02*
X003899Y016107D01*
X003816Y016009D02*
X003315Y016009D01*
X003356Y015910D02*
X003772Y015910D01*
X003751Y015812D02*
X003371Y015812D01*
X003371Y015713D02*
X003751Y015713D01*
X003751Y015615D02*
X003371Y015615D01*
X003371Y015516D02*
X004151Y015516D01*
X004151Y015523D02*
X004151Y015423D01*
X004251Y015423D01*
X004251Y015523D01*
X004151Y015523D01*
X004151Y015615D02*
X004251Y015615D01*
X004251Y015713D02*
X004151Y015713D01*
X004151Y015812D02*
X004251Y015812D01*
X004251Y015910D02*
X004151Y015910D01*
X004151Y016009D02*
X004251Y016009D01*
X004251Y016107D02*
X004151Y016107D01*
X004151Y016206D02*
X004192Y016206D01*
X003995Y016403D02*
X003842Y016403D01*
X003220Y016403D02*
X001931Y016403D01*
X001931Y016501D02*
X003121Y016501D01*
X003067Y016600D02*
X001931Y016600D01*
X001931Y016698D02*
X003026Y016698D01*
X003021Y016797D02*
X001931Y016797D01*
X001931Y016895D02*
X003021Y016895D01*
X003021Y016994D02*
X001931Y016994D01*
X001931Y017092D02*
X003021Y017092D01*
X003021Y017191D02*
X001931Y017191D01*
X001931Y017289D02*
X003021Y017289D01*
X003021Y017388D02*
X001931Y017388D01*
X001931Y017486D02*
X003021Y017486D01*
X003050Y017585D02*
X001931Y017585D01*
X001931Y017683D02*
X003091Y017683D01*
X003178Y017782D02*
X001931Y017782D01*
X001931Y017880D02*
X003326Y017880D01*
X003736Y017880D02*
X004666Y017880D01*
X004518Y017782D02*
X003883Y017782D01*
X003971Y017683D02*
X004431Y017683D01*
X004390Y017585D02*
X004012Y017585D01*
X004041Y017486D02*
X004361Y017486D01*
X004361Y017388D02*
X004041Y017388D01*
X004041Y017289D02*
X004361Y017289D01*
X004361Y017191D02*
X004041Y017191D01*
X004126Y017092D02*
X004361Y017092D01*
X004361Y016994D02*
X004224Y016994D01*
X004323Y016895D02*
X004361Y016895D01*
X005334Y016600D02*
X007737Y016600D01*
X007775Y016637D02*
X007595Y016457D01*
X007498Y016222D01*
X007498Y015968D01*
X007595Y015732D01*
X007775Y015552D01*
X008010Y015455D01*
X008265Y015455D01*
X008500Y015552D01*
X008680Y015732D01*
X008778Y015968D01*
X008778Y016222D01*
X008680Y016457D01*
X008500Y016637D01*
X008265Y016735D01*
X008010Y016735D01*
X007775Y016637D01*
X007922Y016698D02*
X005375Y016698D01*
X005381Y016797D02*
X024531Y016797D01*
X024531Y016895D02*
X005381Y016895D01*
X005381Y016994D02*
X024531Y016994D01*
X024531Y017092D02*
X005381Y017092D01*
X005381Y017191D02*
X024531Y017191D01*
X024531Y017289D02*
X005381Y017289D01*
X005381Y017388D02*
X024531Y017388D01*
X024531Y017486D02*
X005381Y017486D01*
X005352Y017585D02*
X024531Y017585D01*
X024525Y017683D02*
X024057Y017683D01*
X024184Y017782D02*
X024399Y017782D01*
X024312Y017880D02*
X024270Y017880D01*
X024791Y018174D02*
X024791Y016528D01*
X029280Y012040D01*
X029280Y009835D01*
X030500Y008615D01*
X031402Y008615D01*
X031917Y009130D01*
X031405Y009409D02*
X031327Y009409D01*
X031258Y009508D02*
X031474Y009508D01*
X031573Y009606D02*
X031159Y009606D01*
X031075Y009705D02*
X031788Y009705D01*
X032047Y009705D02*
X032927Y009705D01*
X032927Y009803D02*
X031075Y009803D01*
X031075Y009902D02*
X032927Y009902D01*
X032927Y010000D02*
X031075Y010000D01*
X031075Y010099D02*
X032927Y010099D01*
X032927Y010197D02*
X031075Y010197D01*
X031075Y010296D02*
X032927Y010296D01*
X032927Y010394D02*
X031075Y010394D01*
X031075Y010493D02*
X032927Y010493D01*
X032927Y010591D02*
X031075Y010591D01*
X031075Y010690D02*
X032927Y010690D01*
X032927Y010788D02*
X031075Y010788D01*
X031075Y010887D02*
X032927Y010887D01*
X032927Y010985D02*
X031075Y010985D01*
X031036Y011084D02*
X032927Y011084D01*
X032927Y011182D02*
X030938Y011182D01*
X030840Y011281D02*
X032927Y011281D01*
X032927Y011379D02*
X030741Y011379D01*
X030643Y011478D02*
X032927Y011478D01*
X032927Y011576D02*
X030544Y011576D01*
X030446Y011675D02*
X032927Y011675D01*
X032927Y011773D02*
X030347Y011773D01*
X030249Y011872D02*
X032927Y011872D01*
X032927Y011970D02*
X030150Y011970D01*
X030052Y012069D02*
X032927Y012069D01*
X032927Y012167D02*
X029953Y012167D01*
X029855Y012266D02*
X032927Y012266D01*
X032927Y012364D02*
X029756Y012364D01*
X029658Y012463D02*
X032927Y012463D01*
X032927Y012561D02*
X029559Y012561D01*
X029461Y012660D02*
X032927Y012660D01*
X032927Y012758D02*
X029362Y012758D01*
X029264Y012857D02*
X032927Y012857D01*
X032927Y012955D02*
X029165Y012955D01*
X029067Y013054D02*
X032927Y013054D01*
X032927Y013152D02*
X028968Y013152D01*
X028870Y013251D02*
X032927Y013251D01*
X032927Y013349D02*
X028771Y013349D01*
X028673Y013448D02*
X032927Y013448D01*
X032927Y013546D02*
X028574Y013546D01*
X028476Y013645D02*
X032927Y013645D01*
X032927Y013743D02*
X028377Y013743D01*
X028279Y013842D02*
X032927Y013842D01*
X032927Y013940D02*
X028180Y013940D01*
X028082Y014039D02*
X032927Y014039D01*
X032927Y014137D02*
X027983Y014137D01*
X027885Y014236D02*
X032927Y014236D01*
X032927Y014334D02*
X027786Y014334D01*
X027688Y014433D02*
X032927Y014433D01*
X032927Y014531D02*
X027589Y014531D01*
X027491Y014630D02*
X032927Y014630D01*
X032927Y014728D02*
X027392Y014728D01*
X027294Y014827D02*
X032927Y014827D01*
X032927Y014925D02*
X027195Y014925D01*
X027097Y015024D02*
X032927Y015024D01*
X032927Y015122D02*
X026998Y015122D01*
X026900Y015221D02*
X032927Y015221D01*
X032927Y015319D02*
X026801Y015319D01*
X026703Y015418D02*
X032927Y015418D01*
X032927Y015516D02*
X026604Y015516D01*
X026506Y015615D02*
X032927Y015615D01*
X032927Y015713D02*
X026407Y015713D01*
X026309Y015812D02*
X032927Y015812D01*
X032927Y015910D02*
X026210Y015910D01*
X026112Y016009D02*
X032927Y016009D01*
X032927Y016107D02*
X026036Y016107D01*
X026036Y016206D02*
X032927Y016206D01*
X032927Y016304D02*
X026036Y016304D01*
X026036Y016403D02*
X032927Y016403D01*
X032927Y016501D02*
X026036Y016501D01*
X026036Y016600D02*
X032927Y016600D01*
X032927Y016698D02*
X026036Y016698D01*
X026036Y016797D02*
X032927Y016797D01*
X032927Y016895D02*
X026036Y016895D01*
X026036Y016994D02*
X032927Y016994D01*
X032927Y017092D02*
X026036Y017092D01*
X026036Y017191D02*
X032927Y017191D01*
X032927Y017289D02*
X026036Y017289D01*
X026036Y017388D02*
X032927Y017388D01*
X032927Y017486D02*
X026036Y017486D01*
X026036Y017585D02*
X032927Y017585D01*
X032927Y017683D02*
X030057Y017683D01*
X030184Y017782D02*
X032927Y017782D01*
X032927Y017880D02*
X030270Y017880D01*
X030311Y017979D02*
X032927Y017979D01*
X032927Y018077D02*
X030346Y018077D01*
X030346Y018176D02*
X032927Y018176D01*
X032927Y018274D02*
X030346Y018274D01*
X030310Y018373D02*
X032927Y018373D01*
X032927Y018471D02*
X030269Y018471D01*
X030180Y018570D02*
X032927Y018570D01*
X032926Y018668D02*
X030048Y018668D01*
X029535Y018668D02*
X028834Y018668D01*
X028829Y018668D02*
X028754Y018668D01*
X028749Y018668D02*
X028048Y018668D01*
X028180Y018570D02*
X028494Y018570D01*
X028396Y018471D02*
X028269Y018471D01*
X028310Y018373D02*
X028337Y018373D01*
X028754Y018373D02*
X028829Y018373D01*
X028829Y018471D02*
X028754Y018471D01*
X028754Y018570D02*
X028829Y018570D01*
X029089Y018570D02*
X029402Y018570D01*
X029314Y018471D02*
X029187Y018471D01*
X029246Y018373D02*
X029273Y018373D01*
X028829Y018274D02*
X028754Y018274D01*
X028754Y018077D02*
X028829Y018077D01*
X028829Y017979D02*
X028754Y017979D01*
X028754Y017880D02*
X028829Y017880D01*
X028829Y017782D02*
X028754Y017782D01*
X028754Y017683D02*
X028829Y017683D01*
X028858Y017683D02*
X029525Y017683D01*
X029399Y017782D02*
X029094Y017782D01*
X029190Y017880D02*
X029312Y017880D01*
X029271Y017979D02*
X029247Y017979D01*
X028724Y017683D02*
X028057Y017683D01*
X028184Y017782D02*
X028489Y017782D01*
X028393Y017880D02*
X028270Y017880D01*
X028311Y017979D02*
X028335Y017979D01*
X027525Y017683D02*
X027057Y017683D01*
X027184Y017782D02*
X027399Y017782D01*
X027312Y017880D02*
X027270Y017880D01*
X026525Y017683D02*
X026057Y017683D01*
X026184Y017782D02*
X026399Y017782D01*
X026312Y017880D02*
X026270Y017880D01*
X025791Y018174D02*
X025776Y018158D01*
X025776Y015977D01*
X030815Y010937D01*
X030815Y009130D01*
X030027Y008720D02*
X026124Y008720D01*
X026124Y008621D02*
X030126Y008621D01*
X030224Y008523D02*
X026124Y008523D01*
X026124Y008424D02*
X030323Y008424D01*
X029929Y008818D02*
X026104Y008818D01*
X026063Y008917D02*
X029830Y008917D01*
X029732Y009015D02*
X025981Y009015D01*
X026128Y008326D02*
X032927Y008326D01*
X032927Y008424D02*
X031579Y008424D01*
X031677Y008523D02*
X032927Y008523D01*
X032927Y008621D02*
X032203Y008621D01*
X032327Y008720D02*
X032927Y008720D01*
X032927Y008818D02*
X032416Y008818D01*
X032497Y009114D02*
X032927Y009114D01*
X032927Y009212D02*
X032497Y009212D01*
X032470Y009311D02*
X032927Y009311D01*
X032927Y009409D02*
X032430Y009409D01*
X032360Y009508D02*
X032927Y009508D01*
X032927Y009606D02*
X032262Y009606D01*
X032927Y008227D02*
X026226Y008227D01*
X026325Y008129D02*
X032927Y008129D01*
X032927Y008030D02*
X026423Y008030D01*
X026522Y007932D02*
X032927Y007932D01*
X032927Y007833D02*
X026620Y007833D01*
X026719Y007735D02*
X032927Y007735D01*
X032927Y007636D02*
X026817Y007636D01*
X026916Y007538D02*
X032927Y007538D01*
X032927Y007439D02*
X027014Y007439D01*
X026993Y007460D02*
X026993Y007460D01*
X027087Y007341D02*
X032927Y007341D01*
X032927Y007242D02*
X027111Y007242D01*
X027111Y007144D02*
X032927Y007144D01*
X032927Y007045D02*
X027111Y007045D01*
X027156Y006947D02*
X032927Y006947D01*
X032927Y006848D02*
X027262Y006848D01*
X027344Y006750D02*
X032927Y006750D01*
X032927Y006651D02*
X032176Y006651D01*
X032246Y006622D02*
X032033Y006710D01*
X031802Y006710D01*
X031589Y006622D01*
X031426Y006459D01*
X031366Y006315D01*
X031307Y006459D01*
X031144Y006622D01*
X030930Y006710D01*
X030700Y006710D01*
X030486Y006622D01*
X030323Y006459D01*
X030235Y006246D01*
X030235Y006015D01*
X030323Y005802D01*
X030486Y005639D01*
X030700Y005550D01*
X030930Y005550D01*
X031144Y005639D01*
X031307Y005802D01*
X031366Y005945D01*
X031426Y005802D01*
X031589Y005639D01*
X031802Y005550D01*
X032033Y005550D01*
X032246Y005639D01*
X032409Y005802D01*
X032497Y006015D01*
X032497Y006246D01*
X032409Y006459D01*
X032246Y006622D01*
X032315Y006553D02*
X032927Y006553D01*
X032927Y006454D02*
X032411Y006454D01*
X032452Y006356D02*
X032927Y006356D01*
X032927Y006257D02*
X032493Y006257D01*
X032497Y006159D02*
X032927Y006159D01*
X032927Y006060D02*
X032497Y006060D01*
X032475Y005962D02*
X032927Y005962D01*
X032927Y005863D02*
X032434Y005863D01*
X032372Y005765D02*
X032927Y005765D01*
X032927Y005666D02*
X032273Y005666D01*
X032074Y005568D02*
X032927Y005568D01*
X032927Y005469D02*
X026431Y005469D01*
X026529Y005568D02*
X030658Y005568D01*
X030459Y005666D02*
X026601Y005666D01*
X026642Y005765D02*
X030361Y005765D01*
X030298Y005863D02*
X026671Y005863D01*
X027173Y005962D02*
X030257Y005962D01*
X030235Y006060D02*
X027272Y006060D01*
X027348Y006159D02*
X030235Y006159D01*
X030240Y006257D02*
X027389Y006257D01*
X027421Y006356D02*
X030280Y006356D01*
X030321Y006454D02*
X027421Y006454D01*
X027421Y006553D02*
X030417Y006553D01*
X030556Y006651D02*
X027385Y006651D01*
X026121Y007045D02*
X026061Y007045D01*
X026061Y006947D02*
X024793Y006947D01*
X024900Y006848D02*
X025580Y006848D01*
X025609Y006750D02*
X024982Y006750D01*
X025023Y006651D02*
X025664Y006651D01*
X025752Y006553D02*
X025058Y006553D01*
X025058Y006454D02*
X025794Y006454D01*
X025677Y006356D02*
X025058Y006356D01*
X025027Y006257D02*
X025590Y006257D01*
X025549Y006159D02*
X024986Y006159D01*
X024909Y006060D02*
X025511Y006060D01*
X025511Y005962D02*
X024811Y005962D01*
X024308Y005863D02*
X025511Y005863D01*
X025539Y005765D02*
X024280Y005765D01*
X024239Y005666D02*
X025580Y005666D01*
X025652Y005568D02*
X024167Y005568D01*
X024068Y005469D02*
X025751Y005469D01*
X025972Y005371D02*
X023847Y005371D01*
X023610Y005371D02*
X021485Y005371D01*
X021877Y007045D02*
X023217Y007045D01*
X023245Y007144D02*
X021850Y007144D01*
X021796Y007242D02*
X023298Y007242D01*
X023384Y007341D02*
X021710Y007341D01*
X020447Y007735D02*
X019860Y007735D01*
X019920Y007759D02*
X020052Y007891D01*
X020124Y008064D01*
X020124Y008771D01*
X020052Y008944D01*
X019920Y009076D01*
X019747Y009148D01*
X019560Y009148D01*
X019387Y009076D01*
X019255Y008944D01*
X019184Y008771D01*
X019184Y008064D01*
X019255Y007891D01*
X019387Y007759D01*
X019560Y007688D01*
X019747Y007688D01*
X019920Y007759D01*
X019994Y007833D02*
X020314Y007833D01*
X020239Y007932D02*
X020069Y007932D01*
X020109Y008030D02*
X020198Y008030D01*
X020184Y008129D02*
X020124Y008129D01*
X020124Y008227D02*
X020184Y008227D01*
X020184Y008326D02*
X020124Y008326D01*
X020124Y008424D02*
X020184Y008424D01*
X020184Y008523D02*
X020124Y008523D01*
X020124Y008621D02*
X020184Y008621D01*
X020184Y008720D02*
X020124Y008720D01*
X020104Y008818D02*
X020203Y008818D01*
X020244Y008917D02*
X020063Y008917D01*
X019981Y009015D02*
X020326Y009015D01*
X020478Y009114D02*
X019830Y009114D01*
X019478Y009114D02*
X018830Y009114D01*
X018747Y009148D02*
X018560Y009148D01*
X018387Y009076D01*
X018255Y008944D01*
X018184Y008771D01*
X018184Y008064D01*
X018255Y007891D01*
X018387Y007759D01*
X018560Y007688D01*
X018747Y007688D01*
X018920Y007759D01*
X019052Y007891D01*
X019124Y008064D01*
X019124Y008771D01*
X019052Y008944D01*
X018920Y009076D01*
X018747Y009148D01*
X018981Y009015D02*
X019326Y009015D01*
X019244Y008917D02*
X019063Y008917D01*
X019104Y008818D02*
X019203Y008818D01*
X019184Y008720D02*
X019124Y008720D01*
X019124Y008621D02*
X019184Y008621D01*
X019184Y008523D02*
X019124Y008523D01*
X019124Y008424D02*
X019184Y008424D01*
X019184Y008326D02*
X019124Y008326D01*
X019124Y008227D02*
X019184Y008227D01*
X019184Y008129D02*
X019124Y008129D01*
X019109Y008030D02*
X019198Y008030D01*
X019239Y007932D02*
X019069Y007932D01*
X018994Y007833D02*
X019314Y007833D01*
X019447Y007735D02*
X018860Y007735D01*
X018447Y007735D02*
X017592Y007735D01*
X017652Y007759D02*
X017784Y007891D01*
X017856Y008064D01*
X017856Y008771D01*
X017784Y008944D01*
X017652Y009076D01*
X017479Y009148D01*
X017292Y009148D01*
X017120Y009076D01*
X016987Y008944D01*
X016916Y008771D01*
X016916Y008064D01*
X016987Y007891D01*
X017120Y007759D01*
X017292Y007688D01*
X017479Y007688D01*
X017652Y007759D01*
X017726Y007833D02*
X018314Y007833D01*
X018239Y007932D02*
X017801Y007932D01*
X017842Y008030D02*
X018198Y008030D01*
X018184Y008129D02*
X017856Y008129D01*
X017856Y008227D02*
X018184Y008227D01*
X018184Y008326D02*
X017856Y008326D01*
X017856Y008424D02*
X018184Y008424D01*
X018184Y008523D02*
X017856Y008523D01*
X017856Y008621D02*
X018184Y008621D01*
X018184Y008720D02*
X017856Y008720D01*
X017836Y008818D02*
X018203Y008818D01*
X018244Y008917D02*
X017796Y008917D01*
X017713Y009015D02*
X018326Y009015D01*
X018478Y009114D02*
X017562Y009114D01*
X017210Y009114D02*
X016562Y009114D01*
X016479Y009148D02*
X016292Y009148D01*
X016120Y009076D01*
X015987Y008944D01*
X015916Y008771D01*
X015916Y008064D01*
X015987Y007891D01*
X016120Y007759D01*
X016292Y007688D01*
X016479Y007688D01*
X016652Y007759D01*
X016784Y007891D01*
X016856Y008064D01*
X016856Y008771D01*
X016784Y008944D01*
X016652Y009076D01*
X016479Y009148D01*
X016713Y009015D02*
X017058Y009015D01*
X016976Y008917D02*
X016796Y008917D01*
X016836Y008818D02*
X016935Y008818D01*
X016916Y008720D02*
X016856Y008720D01*
X016856Y008621D02*
X016916Y008621D01*
X016916Y008523D02*
X016856Y008523D01*
X016856Y008424D02*
X016916Y008424D01*
X016916Y008326D02*
X016856Y008326D01*
X016856Y008227D02*
X016916Y008227D01*
X016916Y008129D02*
X016856Y008129D01*
X016842Y008030D02*
X016930Y008030D01*
X016971Y007932D02*
X016801Y007932D01*
X016726Y007833D02*
X017046Y007833D01*
X017179Y007735D02*
X016592Y007735D01*
X016466Y007439D02*
X014455Y007439D01*
X014310Y007439D02*
X014250Y007439D01*
X014250Y007341D02*
X014310Y007341D01*
X014310Y007242D02*
X014250Y007242D01*
X014250Y007144D02*
X014310Y007144D01*
X014310Y007045D02*
X014250Y007045D01*
X014250Y006947D02*
X012982Y006947D01*
X013089Y006848D02*
X013769Y006848D01*
X013798Y006750D02*
X013171Y006750D01*
X013212Y006651D02*
X013853Y006651D01*
X013941Y006553D02*
X013247Y006553D01*
X013247Y006454D02*
X013983Y006454D01*
X013866Y006356D02*
X013247Y006356D01*
X013215Y006257D02*
X013779Y006257D01*
X013738Y006159D02*
X013175Y006159D01*
X013098Y006060D02*
X013700Y006060D01*
X013700Y005962D02*
X013000Y005962D01*
X012497Y005863D02*
X013700Y005863D01*
X013728Y005765D02*
X012469Y005765D01*
X012428Y005666D02*
X013769Y005666D01*
X013841Y005568D02*
X012356Y005568D01*
X012257Y005469D02*
X013939Y005469D01*
X011688Y006482D02*
X011589Y006441D01*
X011645Y006504D02*
X011688Y006482D01*
X011645Y006504D02*
X011579Y006553D01*
X011491Y006651D02*
X010849Y006651D01*
X010809Y006750D02*
X011435Y006750D01*
X011407Y006848D02*
X010727Y006848D01*
X010620Y006947D02*
X011887Y006947D01*
X011887Y006979D02*
X011397Y006979D01*
X011397Y006990D01*
X011410Y007071D01*
X011435Y007149D01*
X011473Y007222D01*
X011521Y007288D01*
X011579Y007346D01*
X011645Y007394D01*
X011718Y007431D01*
X011796Y007456D01*
X011876Y007469D01*
X011887Y007469D01*
X011887Y006979D01*
X011887Y007045D02*
X011947Y007045D01*
X011947Y007144D02*
X011887Y007144D01*
X011887Y007242D02*
X011947Y007242D01*
X011947Y007341D02*
X011887Y007341D01*
X011887Y007439D02*
X011947Y007439D01*
X012093Y007439D02*
X014104Y007439D01*
X013935Y007341D02*
X012261Y007341D01*
X012347Y007242D02*
X013850Y007242D01*
X013796Y007144D02*
X012401Y007144D01*
X012429Y007045D02*
X013768Y007045D01*
X014624Y007341D02*
X016298Y007341D01*
X016212Y007242D02*
X014710Y007242D01*
X014763Y007144D02*
X016158Y007144D01*
X016130Y007045D02*
X014791Y007045D01*
X014479Y007688D02*
X014292Y007688D01*
X014120Y007759D01*
X013987Y007891D01*
X013916Y008064D01*
X013916Y008771D01*
X013987Y008944D01*
X014120Y009076D01*
X014292Y009148D01*
X014479Y009148D01*
X014652Y009076D01*
X014784Y008944D01*
X014856Y008771D01*
X014856Y008064D01*
X014784Y007891D01*
X014652Y007759D01*
X014479Y007688D01*
X014592Y007735D02*
X015179Y007735D01*
X015120Y007759D02*
X015292Y007688D01*
X015479Y007688D01*
X015652Y007759D01*
X015784Y007891D01*
X015856Y008064D01*
X015856Y008771D01*
X015784Y008944D01*
X015652Y009076D01*
X015479Y009148D01*
X015292Y009148D01*
X015120Y009076D01*
X014987Y008944D01*
X014916Y008771D01*
X014916Y008064D01*
X014987Y007891D01*
X015120Y007759D01*
X015046Y007833D02*
X014726Y007833D01*
X014801Y007932D02*
X014971Y007932D01*
X014930Y008030D02*
X014842Y008030D01*
X014856Y008129D02*
X014916Y008129D01*
X014916Y008227D02*
X014856Y008227D01*
X014856Y008326D02*
X014916Y008326D01*
X014916Y008424D02*
X014856Y008424D01*
X014856Y008523D02*
X014916Y008523D01*
X014916Y008621D02*
X014856Y008621D01*
X014856Y008720D02*
X014916Y008720D01*
X014935Y008818D02*
X014836Y008818D01*
X014796Y008917D02*
X014976Y008917D01*
X015058Y009015D02*
X014713Y009015D01*
X014562Y009114D02*
X015210Y009114D01*
X015562Y009114D02*
X016210Y009114D01*
X016058Y009015D02*
X015713Y009015D01*
X015796Y008917D02*
X015976Y008917D01*
X015935Y008818D02*
X015836Y008818D01*
X015856Y008720D02*
X015916Y008720D01*
X015916Y008621D02*
X015856Y008621D01*
X015856Y008523D02*
X015916Y008523D01*
X015916Y008424D02*
X015856Y008424D01*
X015856Y008326D02*
X015916Y008326D01*
X015916Y008227D02*
X015856Y008227D01*
X015856Y008129D02*
X015916Y008129D01*
X015930Y008030D02*
X015842Y008030D01*
X015801Y007932D02*
X015971Y007932D01*
X016046Y007833D02*
X015726Y007833D01*
X015592Y007735D02*
X016179Y007735D01*
X014179Y007735D02*
X013592Y007735D01*
X013652Y007759D02*
X013784Y007891D01*
X013856Y008064D01*
X013856Y008771D01*
X013784Y008944D01*
X013652Y009076D01*
X013479Y009148D01*
X013292Y009148D01*
X013120Y009076D01*
X012987Y008944D01*
X012916Y008771D01*
X012916Y008064D01*
X012987Y007891D01*
X013120Y007759D01*
X013292Y007688D01*
X013479Y007688D01*
X013652Y007759D01*
X013726Y007833D02*
X014046Y007833D01*
X013971Y007932D02*
X013801Y007932D01*
X013842Y008030D02*
X013930Y008030D01*
X013916Y008129D02*
X013856Y008129D01*
X013856Y008227D02*
X013916Y008227D01*
X013916Y008326D02*
X013856Y008326D01*
X013856Y008424D02*
X013916Y008424D01*
X013916Y008523D02*
X013856Y008523D01*
X013856Y008621D02*
X013916Y008621D01*
X013916Y008720D02*
X013856Y008720D01*
X013836Y008818D02*
X013935Y008818D01*
X013976Y008917D02*
X013796Y008917D01*
X013713Y009015D02*
X014058Y009015D01*
X014210Y009114D02*
X013562Y009114D01*
X013210Y009114D02*
X012562Y009114D01*
X012479Y009148D02*
X012292Y009148D01*
X012120Y009076D01*
X011987Y008944D01*
X011916Y008771D01*
X011916Y008064D01*
X011987Y007891D01*
X012120Y007759D01*
X012292Y007688D01*
X012479Y007688D01*
X012652Y007759D01*
X012784Y007891D01*
X012856Y008064D01*
X012856Y008771D01*
X012784Y008944D01*
X012652Y009076D01*
X012479Y009148D01*
X012713Y009015D02*
X013058Y009015D01*
X012976Y008917D02*
X012796Y008917D01*
X012836Y008818D02*
X012935Y008818D01*
X012916Y008720D02*
X012856Y008720D01*
X012856Y008621D02*
X012916Y008621D01*
X012916Y008523D02*
X012856Y008523D01*
X012856Y008424D02*
X012916Y008424D01*
X012916Y008326D02*
X012856Y008326D01*
X012856Y008227D02*
X012916Y008227D01*
X012916Y008129D02*
X012856Y008129D01*
X012842Y008030D02*
X012930Y008030D01*
X012971Y007932D02*
X012801Y007932D01*
X012726Y007833D02*
X013046Y007833D01*
X013179Y007735D02*
X012592Y007735D01*
X012179Y007735D02*
X011592Y007735D01*
X011652Y007759D02*
X011784Y007891D01*
X011856Y008064D01*
X011856Y008771D01*
X011784Y008944D01*
X011652Y009076D01*
X011479Y009148D01*
X011292Y009148D01*
X011120Y009076D01*
X010987Y008944D01*
X010916Y008771D01*
X010916Y008064D01*
X010987Y007891D01*
X011120Y007759D01*
X011292Y007688D01*
X011479Y007688D01*
X011652Y007759D01*
X011726Y007833D02*
X012046Y007833D01*
X011971Y007932D02*
X011801Y007932D01*
X011842Y008030D02*
X011930Y008030D01*
X011916Y008129D02*
X011856Y008129D01*
X011856Y008227D02*
X011916Y008227D01*
X011916Y008326D02*
X011856Y008326D01*
X011856Y008424D02*
X011916Y008424D01*
X011916Y008523D02*
X011856Y008523D01*
X011856Y008621D02*
X011916Y008621D01*
X011916Y008720D02*
X011856Y008720D01*
X011836Y008818D02*
X011935Y008818D01*
X011976Y008917D02*
X011796Y008917D01*
X011713Y009015D02*
X012058Y009015D01*
X012210Y009114D02*
X011562Y009114D01*
X011210Y009114D02*
X010562Y009114D01*
X010479Y009148D02*
X010292Y009148D01*
X010120Y009076D01*
X009987Y008944D01*
X009916Y008771D01*
X009916Y008064D01*
X009987Y007891D01*
X010120Y007759D01*
X010292Y007688D01*
X010479Y007688D01*
X010652Y007759D01*
X010784Y007891D01*
X010856Y008064D01*
X010856Y008771D01*
X010784Y008944D01*
X010652Y009076D01*
X010479Y009148D01*
X010713Y009015D02*
X011058Y009015D01*
X010976Y008917D02*
X010796Y008917D01*
X010836Y008818D02*
X010935Y008818D01*
X010916Y008720D02*
X010856Y008720D01*
X010856Y008621D02*
X010916Y008621D01*
X010916Y008523D02*
X010856Y008523D01*
X010856Y008424D02*
X010916Y008424D01*
X010916Y008326D02*
X010856Y008326D01*
X010856Y008227D02*
X010916Y008227D01*
X010916Y008129D02*
X010856Y008129D01*
X010842Y008030D02*
X010930Y008030D01*
X010971Y007932D02*
X010801Y007932D01*
X010726Y007833D02*
X011046Y007833D01*
X011179Y007735D02*
X010592Y007735D01*
X010179Y007735D02*
X006537Y007735D01*
X006537Y007833D02*
X010046Y007833D01*
X009971Y007932D02*
X006530Y007932D01*
X006489Y008030D02*
X009930Y008030D01*
X009916Y008129D02*
X008178Y008129D01*
X008440Y008227D02*
X009916Y008227D01*
X009916Y008326D02*
X008610Y008326D01*
X008729Y008424D02*
X009916Y008424D01*
X009916Y008523D02*
X008827Y008523D01*
X008920Y008621D02*
X009916Y008621D01*
X009916Y008720D02*
X008976Y008720D01*
X009033Y008818D02*
X009935Y008818D01*
X009976Y008917D02*
X009090Y008917D01*
X009117Y009015D02*
X010058Y009015D01*
X010210Y009114D02*
X009143Y009114D01*
X007468Y008129D02*
X006449Y008129D01*
X006355Y008227D02*
X007206Y008227D01*
X007035Y008326D02*
X006231Y008326D01*
X006726Y008621D02*
X001931Y008621D01*
X001931Y008523D02*
X006818Y008523D01*
X006917Y008424D02*
X001931Y008424D01*
X001931Y008326D02*
X003324Y008326D01*
X003325Y008326D02*
X003244Y008300D01*
X003168Y008261D01*
X003099Y008210D01*
X003038Y008150D01*
X002988Y008081D01*
X002949Y008004D01*
X002922Y007923D01*
X002909Y007838D01*
X002909Y007450D01*
X003404Y007450D01*
X003404Y007354D01*
X002909Y007354D01*
X002909Y006965D01*
X002922Y006881D01*
X002949Y006800D01*
X002988Y006723D01*
X003038Y006654D01*
X003099Y006594D01*
X003168Y006543D01*
X003244Y006504D01*
X003325Y006478D01*
X003404Y006465D01*
X003404Y007354D01*
X003501Y007354D01*
X003501Y007450D01*
X003996Y007450D01*
X003996Y007838D01*
X003983Y007923D01*
X003957Y008004D01*
X003918Y008081D01*
X003867Y008150D01*
X003807Y008210D01*
X003738Y008261D01*
X003661Y008300D01*
X003580Y008326D01*
X003501Y008338D01*
X003501Y007450D01*
X003404Y007450D01*
X003404Y008338D01*
X003325Y008326D01*
X003404Y008326D02*
X003501Y008326D01*
X003581Y008326D02*
X005635Y008326D01*
X005511Y008227D02*
X003784Y008227D01*
X003883Y008129D02*
X005418Y008129D01*
X005377Y008030D02*
X003944Y008030D01*
X003980Y007932D02*
X005336Y007932D01*
X005329Y007833D02*
X003996Y007833D01*
X003996Y007735D02*
X005329Y007735D01*
X005329Y007636D02*
X003996Y007636D01*
X003996Y007538D02*
X005329Y007538D01*
X005329Y007439D02*
X003501Y007439D01*
X003501Y007354D02*
X003996Y007354D01*
X003996Y006965D01*
X003983Y006881D01*
X003957Y006800D01*
X003918Y006723D01*
X003867Y006654D01*
X003807Y006594D01*
X003738Y006543D01*
X003661Y006504D01*
X003580Y006478D01*
X003501Y006465D01*
X003501Y007354D01*
X003501Y007341D02*
X003404Y007341D01*
X003404Y007439D02*
X001931Y007439D01*
X001931Y007341D02*
X002909Y007341D01*
X002909Y007242D02*
X001931Y007242D01*
X001931Y007144D02*
X002909Y007144D01*
X002909Y007045D02*
X001931Y007045D01*
X001931Y006947D02*
X002912Y006947D01*
X002933Y006848D02*
X001931Y006848D01*
X001931Y006750D02*
X002974Y006750D01*
X003041Y006651D02*
X001931Y006651D01*
X001931Y006553D02*
X003155Y006553D01*
X003404Y006553D02*
X003501Y006553D01*
X003501Y006651D02*
X003404Y006651D01*
X003404Y006750D02*
X003501Y006750D01*
X003501Y006848D02*
X003404Y006848D01*
X003404Y006947D02*
X003501Y006947D01*
X003501Y007045D02*
X003404Y007045D01*
X003404Y007144D02*
X003501Y007144D01*
X003501Y007242D02*
X003404Y007242D01*
X003404Y007538D02*
X003501Y007538D01*
X003501Y007636D02*
X003404Y007636D01*
X003404Y007735D02*
X003501Y007735D01*
X003501Y007833D02*
X003404Y007833D01*
X003404Y007932D02*
X003501Y007932D01*
X003501Y008030D02*
X003404Y008030D01*
X003404Y008129D02*
X003501Y008129D01*
X003501Y008227D02*
X003404Y008227D01*
X003121Y008227D02*
X001931Y008227D01*
X001931Y008129D02*
X003023Y008129D01*
X002962Y008030D02*
X001931Y008030D01*
X001931Y007932D02*
X002925Y007932D01*
X002909Y007833D02*
X001931Y007833D01*
X001931Y007735D02*
X002909Y007735D01*
X002909Y007636D02*
X001931Y007636D01*
X001931Y007538D02*
X002909Y007538D01*
X003996Y007341D02*
X005329Y007341D01*
X005329Y007242D02*
X003996Y007242D01*
X003996Y007144D02*
X005329Y007144D01*
X005329Y007045D02*
X003996Y007045D01*
X003993Y006947D02*
X005329Y006947D01*
X005346Y006848D02*
X003972Y006848D01*
X003931Y006750D02*
X005387Y006750D01*
X005437Y006651D02*
X003864Y006651D01*
X003750Y006553D02*
X005535Y006553D01*
X005643Y006454D02*
X001931Y006454D01*
X001931Y006356D02*
X005643Y006356D01*
X005643Y006257D02*
X001931Y006257D01*
X001931Y006159D02*
X005643Y006159D01*
X005643Y006060D02*
X001931Y006060D01*
X001931Y005962D02*
X004224Y005962D01*
X004024Y005863D02*
X001931Y005863D01*
X001931Y005765D02*
X003927Y005765D01*
X003867Y005666D02*
X001931Y005666D01*
X001931Y005568D02*
X003830Y005568D01*
X003815Y005385D02*
X003828Y005306D01*
X003854Y005225D01*
X003893Y005149D01*
X003944Y005079D01*
X004004Y005019D01*
X004073Y004968D01*
X004150Y004930D01*
X004231Y004903D01*
X004315Y004890D01*
X004704Y004890D01*
X004704Y005385D01*
X003815Y005385D01*
X003818Y005371D02*
X001931Y005371D01*
X001931Y005469D02*
X004704Y005469D01*
X004704Y005371D02*
X004800Y005371D01*
X004800Y005272D02*
X004704Y005272D01*
X004704Y005174D02*
X004800Y005174D01*
X004800Y005075D02*
X004704Y005075D01*
X004704Y004977D02*
X004800Y004977D01*
X004062Y004977D02*
X001931Y004977D01*
X001931Y005075D02*
X003948Y005075D01*
X003881Y005174D02*
X001931Y005174D01*
X001931Y005272D02*
X003839Y005272D01*
X004704Y005568D02*
X004800Y005568D01*
X004800Y005666D02*
X004704Y005666D01*
X004704Y005765D02*
X004800Y005765D01*
X004800Y005863D02*
X004704Y005863D01*
X004704Y005962D02*
X004800Y005962D01*
X005280Y005962D02*
X005643Y005962D01*
X005643Y005863D02*
X005479Y005863D01*
X005577Y005765D02*
X005643Y005765D01*
X005637Y005666D02*
X005643Y005666D01*
X006223Y005666D02*
X009045Y005666D01*
X009004Y005765D02*
X006223Y005765D01*
X006223Y005863D02*
X008975Y005863D01*
X008975Y005962D02*
X006223Y005962D01*
X006223Y006060D02*
X008975Y006060D01*
X009014Y006159D02*
X006223Y006159D01*
X006223Y006257D02*
X009055Y006257D01*
X009141Y006356D02*
X006223Y006356D01*
X006223Y006454D02*
X009258Y006454D01*
X009216Y006553D02*
X006331Y006553D01*
X006430Y006651D02*
X009129Y006651D01*
X009073Y006750D02*
X006479Y006750D01*
X006520Y006848D02*
X009045Y006848D01*
X009035Y006979D02*
X009525Y006979D01*
X009525Y007469D01*
X009514Y007469D01*
X009433Y007456D01*
X009356Y007431D01*
X009283Y007394D01*
X009216Y007346D01*
X009158Y007288D01*
X009110Y007222D01*
X009073Y007149D01*
X009048Y007071D01*
X009035Y006990D01*
X009035Y006979D01*
X009044Y007045D02*
X006537Y007045D01*
X006537Y006947D02*
X009525Y006947D01*
X009525Y007045D02*
X009585Y007045D01*
X009585Y007144D02*
X009525Y007144D01*
X009525Y007242D02*
X009585Y007242D01*
X009585Y007341D02*
X009525Y007341D01*
X009525Y007439D02*
X009585Y007439D01*
X009730Y007439D02*
X011742Y007439D01*
X011573Y007341D02*
X009899Y007341D01*
X009985Y007242D02*
X011487Y007242D01*
X011434Y007144D02*
X010039Y007144D01*
X010066Y007045D02*
X011406Y007045D01*
X011503Y006356D02*
X010885Y006356D01*
X010853Y006257D02*
X011417Y006257D01*
X011376Y006159D02*
X010812Y006159D01*
X010736Y006060D02*
X011337Y006060D01*
X011337Y005962D02*
X010638Y005962D01*
X010135Y005863D02*
X011337Y005863D01*
X011366Y005765D02*
X010106Y005765D01*
X010066Y005666D02*
X011407Y005666D01*
X011479Y005568D02*
X009994Y005568D01*
X009895Y005469D02*
X011577Y005469D01*
X009215Y005469D02*
X006223Y005469D01*
X006223Y005568D02*
X009117Y005568D01*
X009071Y007144D02*
X006537Y007144D01*
X006537Y007242D02*
X009125Y007242D01*
X009211Y007341D02*
X006537Y007341D01*
X006537Y007439D02*
X009380Y007439D01*
X006669Y008720D02*
X001931Y008720D01*
X001931Y008818D02*
X006612Y008818D01*
X006555Y008917D02*
X001931Y008917D01*
X001931Y009015D02*
X006529Y009015D01*
X006503Y009114D02*
X004543Y009114D01*
X004666Y009212D02*
X006476Y009212D01*
X006463Y009311D02*
X004754Y009311D01*
X004795Y009409D02*
X006463Y009409D01*
X006463Y009508D02*
X004836Y009508D01*
X004836Y009606D02*
X006463Y009606D01*
X006485Y009705D02*
X004836Y009705D01*
X004836Y009803D02*
X006512Y009803D01*
X006538Y009902D02*
X004836Y009902D01*
X004836Y010000D02*
X006575Y010000D01*
X006632Y010099D02*
X004836Y010099D01*
X004836Y010197D02*
X006689Y010197D01*
X006754Y010296D02*
X004836Y010296D01*
X004836Y010394D02*
X006852Y010394D01*
X006951Y010493D02*
X004830Y010493D01*
X004789Y010591D02*
X007094Y010591D01*
X007265Y010690D02*
X004748Y010690D01*
X005872Y011478D02*
X008199Y011478D01*
X008207Y011469D02*
X008420Y011381D01*
X008651Y011381D01*
X008864Y011469D01*
X009027Y011632D01*
X009115Y011846D01*
X009115Y012076D01*
X009027Y012290D01*
X008864Y012453D01*
X008651Y012541D01*
X008420Y012541D01*
X008207Y012453D01*
X008044Y012290D01*
X007955Y012076D01*
X007955Y011846D01*
X008044Y011632D01*
X008207Y011469D01*
X008100Y011576D02*
X005971Y011576D01*
X006045Y011675D02*
X008026Y011675D01*
X007986Y011773D02*
X006085Y011773D01*
X006115Y011872D02*
X007955Y011872D01*
X007955Y011970D02*
X006115Y011970D01*
X006115Y012069D02*
X007955Y012069D01*
X007993Y012167D02*
X006078Y012167D01*
X006037Y012266D02*
X008034Y012266D01*
X008118Y012364D02*
X005953Y012364D01*
X005588Y012561D02*
X001931Y012561D01*
X001931Y013054D02*
X002685Y013054D01*
X002615Y013152D02*
X001931Y013152D01*
X001931Y013251D02*
X002615Y013251D01*
X002615Y013349D02*
X001931Y013349D01*
X001931Y013448D02*
X002615Y013448D01*
X002615Y013546D02*
X001931Y013546D01*
X001931Y013645D02*
X002615Y013645D01*
X002615Y013743D02*
X001931Y013743D01*
X001931Y013842D02*
X002615Y013842D01*
X002615Y013940D02*
X001931Y013940D01*
X001931Y014039D02*
X002705Y014039D01*
X003594Y014039D02*
X005498Y014039D01*
X005524Y014137D02*
X001931Y014137D01*
X003120Y014728D02*
X004133Y014728D01*
X004151Y014728D02*
X004251Y014728D01*
X004251Y014725D02*
X004306Y014734D01*
X004374Y014756D01*
X004437Y014788D01*
X004494Y014830D01*
X004544Y014880D01*
X004586Y014937D01*
X004618Y015000D01*
X004640Y015067D01*
X004651Y015137D01*
X004651Y015423D01*
X004251Y015423D01*
X004251Y014725D01*
X004269Y014728D02*
X005473Y014728D01*
X005491Y014728D02*
X005591Y014728D01*
X005591Y014725D02*
X005646Y014734D01*
X005714Y014756D01*
X005777Y014788D01*
X005834Y014830D01*
X005884Y014880D01*
X005926Y014937D01*
X005958Y015000D01*
X005980Y015067D01*
X005991Y015137D01*
X005991Y015423D01*
X005591Y015423D01*
X005591Y014725D01*
X005609Y014728D02*
X007126Y014728D01*
X007028Y014827D02*
X005830Y014827D01*
X005917Y014925D02*
X006929Y014925D01*
X006831Y015024D02*
X005965Y015024D01*
X005988Y015122D02*
X006732Y015122D01*
X006634Y015221D02*
X005991Y015221D01*
X005991Y015319D02*
X006535Y015319D01*
X006437Y015418D02*
X005991Y015418D01*
X005991Y015615D02*
X006240Y015615D01*
X006338Y015516D02*
X005591Y015516D01*
X005591Y015418D02*
X005491Y015418D01*
X005491Y015423D02*
X005491Y014725D01*
X005435Y014734D01*
X005368Y014756D01*
X005305Y014788D01*
X005248Y014830D01*
X005198Y014880D01*
X005156Y014937D01*
X005124Y015000D01*
X005102Y015067D01*
X005091Y015137D01*
X005091Y015423D01*
X005491Y015423D01*
X005491Y015516D02*
X004251Y015516D01*
X004251Y015418D02*
X004151Y015418D01*
X004151Y015423D02*
X004151Y014725D01*
X004095Y014734D01*
X004028Y014756D01*
X003965Y014788D01*
X003908Y014830D01*
X003858Y014880D01*
X003816Y014937D01*
X003784Y015000D01*
X003762Y015067D01*
X003751Y015137D01*
X003751Y015423D01*
X004151Y015423D01*
X004151Y015319D02*
X004251Y015319D01*
X004251Y015221D02*
X004151Y015221D01*
X004151Y015122D02*
X004251Y015122D01*
X004251Y015024D02*
X004151Y015024D01*
X004151Y014925D02*
X004251Y014925D01*
X004251Y014827D02*
X004151Y014827D01*
X003912Y014827D02*
X003236Y014827D01*
X003310Y014925D02*
X003825Y014925D01*
X003776Y015024D02*
X003351Y015024D01*
X003371Y015122D02*
X003753Y015122D01*
X003751Y015221D02*
X003371Y015221D01*
X003371Y015319D02*
X003751Y015319D01*
X003751Y015418D02*
X003371Y015418D01*
X004490Y014827D02*
X005252Y014827D01*
X005165Y014925D02*
X004577Y014925D01*
X004625Y015024D02*
X005116Y015024D01*
X005093Y015122D02*
X004648Y015122D01*
X004651Y015221D02*
X005091Y015221D01*
X005091Y015319D02*
X004651Y015319D01*
X004651Y015418D02*
X005091Y015418D01*
X005091Y015615D02*
X004651Y015615D01*
X004651Y015713D02*
X005091Y015713D01*
X005091Y015812D02*
X004650Y015812D01*
X004629Y015910D02*
X005112Y015910D01*
X005990Y015812D02*
X006043Y015812D01*
X005991Y015713D02*
X006141Y015713D01*
X006567Y016107D02*
X007498Y016107D01*
X007498Y016009D02*
X006666Y016009D01*
X006764Y015910D02*
X007522Y015910D01*
X007562Y015812D02*
X006863Y015812D01*
X006961Y015713D02*
X007615Y015713D01*
X007713Y015615D02*
X007060Y015615D01*
X007158Y015516D02*
X007863Y015516D01*
X007355Y015319D02*
X010252Y015319D01*
X010252Y015221D02*
X007454Y015221D01*
X007552Y015122D02*
X010252Y015122D01*
X010252Y015024D02*
X007651Y015024D01*
X007749Y014925D02*
X010262Y014925D01*
X010252Y014935D02*
X010375Y014812D01*
X011199Y014812D01*
X011322Y014935D01*
X011322Y015246D01*
X011324Y015236D01*
X011347Y015165D01*
X011381Y015098D01*
X011425Y015037D01*
X011478Y014985D01*
X011538Y014941D01*
X011605Y014907D01*
X011676Y014884D01*
X011750Y014872D01*
X011769Y014872D01*
X011769Y015328D01*
X011806Y015328D01*
X011806Y014872D01*
X011825Y014872D01*
X011899Y014884D01*
X011970Y014907D01*
X012036Y014941D01*
X012097Y014985D01*
X012150Y015037D01*
X012194Y015098D01*
X012228Y015165D01*
X012251Y015236D01*
X012262Y015309D01*
X012262Y015328D01*
X011806Y015328D01*
X011806Y015366D01*
X011769Y015366D01*
X011769Y015822D01*
X011750Y015822D01*
X011676Y015810D01*
X011605Y015787D01*
X011538Y015753D01*
X011478Y015709D01*
X011425Y015656D01*
X011381Y015596D01*
X011347Y015529D01*
X011324Y015458D01*
X011322Y015447D01*
X011322Y015759D01*
X011199Y015882D01*
X010375Y015882D01*
X010252Y015759D01*
X010252Y014935D01*
X010361Y014827D02*
X007848Y014827D01*
X008358Y014728D02*
X026224Y014728D01*
X026322Y014630D02*
X008540Y014630D01*
X008638Y014531D02*
X026421Y014531D01*
X026519Y014433D02*
X008704Y014433D01*
X008745Y014334D02*
X026618Y014334D01*
X026716Y014236D02*
X008778Y014236D01*
X008778Y014137D02*
X026815Y014137D01*
X026913Y014039D02*
X008778Y014039D01*
X008753Y013940D02*
X027012Y013940D01*
X027110Y013842D02*
X008713Y013842D01*
X008660Y013743D02*
X009440Y013743D01*
X009454Y013757D02*
X009302Y013605D01*
X009220Y013407D01*
X009220Y013192D01*
X009302Y012994D01*
X009454Y012842D01*
X009652Y012760D01*
X009867Y012760D01*
X010066Y012842D01*
X010218Y012994D01*
X010300Y013192D01*
X010300Y013407D01*
X010218Y013605D01*
X010066Y013757D01*
X009867Y013840D01*
X009652Y013840D01*
X009454Y013757D01*
X009341Y013645D02*
X008561Y013645D01*
X008409Y013546D02*
X009277Y013546D01*
X009237Y013448D02*
X006342Y013448D01*
X006331Y013546D02*
X007866Y013546D01*
X007715Y013645D02*
X006427Y013645D01*
X006486Y013743D02*
X007616Y013743D01*
X007563Y013842D02*
X006520Y013842D01*
X006440Y013349D02*
X009220Y013349D01*
X009220Y013251D02*
X006518Y013251D01*
X006559Y013152D02*
X009236Y013152D01*
X009277Y013054D02*
X006592Y013054D01*
X006592Y012955D02*
X009341Y012955D01*
X009439Y012857D02*
X006592Y012857D01*
X006557Y012758D02*
X028194Y012758D01*
X028292Y012660D02*
X006516Y012660D01*
X006436Y012561D02*
X028391Y012561D01*
X028489Y012463D02*
X009960Y012463D01*
X009867Y012501D02*
X009652Y012501D01*
X009454Y012419D01*
X009302Y012267D01*
X009220Y012068D01*
X009220Y011854D01*
X009302Y011655D01*
X009454Y011503D01*
X009652Y011421D01*
X009867Y011421D01*
X010066Y011503D01*
X010218Y011655D01*
X010300Y011854D01*
X010300Y012068D01*
X010218Y012267D01*
X010066Y012419D01*
X009867Y012501D01*
X010121Y012364D02*
X013498Y012364D01*
X013508Y012372D02*
X013447Y012327D01*
X013394Y012274D01*
X013349Y012213D01*
X013315Y012145D01*
X013292Y012073D01*
X013282Y012011D01*
X013710Y012011D01*
X013710Y012439D01*
X013647Y012429D01*
X013576Y012406D01*
X013508Y012372D01*
X013388Y012266D02*
X010218Y012266D01*
X010259Y012167D02*
X013326Y012167D01*
X013291Y012069D02*
X010300Y012069D01*
X010300Y011970D02*
X013710Y011970D01*
X013710Y012011D02*
X013710Y011911D01*
X013810Y011911D01*
X013810Y012011D01*
X014238Y012011D01*
X014228Y012073D01*
X014205Y012145D01*
X014170Y012213D01*
X014126Y012274D01*
X014073Y012327D01*
X014011Y012372D01*
X013944Y012406D01*
X013872Y012429D01*
X013810Y012439D01*
X013810Y012011D01*
X013710Y012011D01*
X013710Y012069D02*
X013810Y012069D01*
X013810Y012167D02*
X013710Y012167D01*
X013710Y012266D02*
X013810Y012266D01*
X013810Y012364D02*
X013710Y012364D01*
X014022Y012364D02*
X028588Y012364D01*
X028686Y012266D02*
X014132Y012266D01*
X014194Y012167D02*
X028785Y012167D01*
X028883Y012069D02*
X014229Y012069D01*
X014238Y011911D02*
X013810Y011911D01*
X013810Y011483D01*
X013872Y011493D01*
X013944Y011516D01*
X014011Y011550D01*
X014073Y011595D01*
X014126Y011648D01*
X014170Y011709D01*
X014205Y011777D01*
X014228Y011849D01*
X014238Y011911D01*
X014232Y011872D02*
X029020Y011872D01*
X029020Y011773D02*
X014203Y011773D01*
X014145Y011675D02*
X018550Y011675D01*
X018409Y011576D02*
X014047Y011576D01*
X013810Y011576D02*
X013710Y011576D01*
X013710Y011483D02*
X013710Y011911D01*
X013282Y011911D01*
X013292Y011849D01*
X013315Y011777D01*
X013349Y011709D01*
X013394Y011648D01*
X013447Y011595D01*
X013508Y011550D01*
X013576Y011516D01*
X013647Y011493D01*
X013710Y011483D01*
X013710Y011675D02*
X013810Y011675D01*
X013810Y011773D02*
X013710Y011773D01*
X013710Y011872D02*
X013810Y011872D01*
X013810Y011970D02*
X028982Y011970D01*
X028550Y011675D02*
X028032Y011675D01*
X028174Y011576D02*
X028409Y011576D01*
X028316Y011478D02*
X028266Y011478D01*
X027550Y011675D02*
X026032Y011675D01*
X026174Y011576D02*
X026503Y011576D01*
X026400Y011478D02*
X026266Y011478D01*
X026307Y011379D02*
X026340Y011379D01*
X026754Y011379D02*
X026829Y011379D01*
X026829Y011281D02*
X026754Y011281D01*
X026754Y011478D02*
X026829Y011478D01*
X026829Y011576D02*
X026754Y011576D01*
X027080Y011576D02*
X027409Y011576D01*
X027316Y011478D02*
X027182Y011478D01*
X027242Y011379D02*
X027276Y011379D01*
X026829Y011084D02*
X026754Y011084D01*
X026754Y010985D02*
X026829Y010985D01*
X026829Y010887D02*
X026754Y010887D01*
X026754Y010788D02*
X026829Y010788D01*
X026829Y010690D02*
X026754Y010690D01*
X026684Y010690D02*
X026073Y010690D01*
X026191Y010788D02*
X026480Y010788D01*
X026388Y010887D02*
X026273Y010887D01*
X026314Y010985D02*
X026332Y010985D01*
X026899Y010690D02*
X027510Y010690D01*
X027392Y010788D02*
X027103Y010788D01*
X027195Y010887D02*
X027310Y010887D01*
X027269Y010985D02*
X027251Y010985D01*
X028073Y010690D02*
X028510Y010690D01*
X028392Y010788D02*
X028191Y010788D01*
X028273Y010887D02*
X028310Y010887D01*
X025510Y010690D02*
X025073Y010690D01*
X025191Y010788D02*
X025392Y010788D01*
X025310Y010887D02*
X025273Y010887D01*
X024510Y010690D02*
X024073Y010690D01*
X024191Y010788D02*
X024392Y010788D01*
X024310Y010887D02*
X024273Y010887D01*
X023510Y010690D02*
X023073Y010690D01*
X023191Y010788D02*
X023392Y010788D01*
X023310Y010887D02*
X023273Y010887D01*
X022510Y010690D02*
X022073Y010690D01*
X022191Y010788D02*
X022392Y010788D01*
X022310Y010887D02*
X022273Y010887D01*
X021510Y010690D02*
X021073Y010690D01*
X021191Y010788D02*
X021392Y010788D01*
X021310Y010887D02*
X021273Y010887D01*
X020510Y010690D02*
X020073Y010690D01*
X020191Y010788D02*
X020392Y010788D01*
X020310Y010887D02*
X020273Y010887D01*
X019510Y010690D02*
X019073Y010690D01*
X019191Y010788D02*
X019392Y010788D01*
X019310Y010887D02*
X019273Y010887D01*
X019266Y011478D02*
X019316Y011478D01*
X019409Y011576D02*
X019174Y011576D01*
X019032Y011675D02*
X019550Y011675D01*
X020032Y011675D02*
X020550Y011675D01*
X020409Y011576D02*
X020174Y011576D01*
X020266Y011478D02*
X020316Y011478D01*
X021032Y011675D02*
X021550Y011675D01*
X021409Y011576D02*
X021174Y011576D01*
X021266Y011478D02*
X021316Y011478D01*
X022032Y011675D02*
X022550Y011675D01*
X022409Y011576D02*
X022174Y011576D01*
X022266Y011478D02*
X022316Y011478D01*
X023032Y011675D02*
X023550Y011675D01*
X023409Y011576D02*
X023174Y011576D01*
X023266Y011478D02*
X023316Y011478D01*
X024032Y011675D02*
X024550Y011675D01*
X024409Y011576D02*
X024174Y011576D01*
X024266Y011478D02*
X024316Y011478D01*
X025032Y011675D02*
X025550Y011675D01*
X025409Y011576D02*
X025174Y011576D01*
X025266Y011478D02*
X025316Y011478D01*
X027800Y013152D02*
X014217Y013152D01*
X014228Y013187D02*
X014238Y013250D01*
X013810Y013250D01*
X013810Y013350D01*
X013710Y013350D01*
X013710Y013778D01*
X013647Y013768D01*
X013576Y013744D01*
X013508Y013710D01*
X013447Y013666D01*
X013394Y013612D01*
X013349Y013551D01*
X013315Y013484D01*
X013292Y013412D01*
X013282Y013350D01*
X013710Y013350D01*
X013710Y013250D01*
X013282Y013250D01*
X013292Y013187D01*
X013315Y013115D01*
X013349Y013048D01*
X013394Y012987D01*
X013447Y012933D01*
X013508Y012889D01*
X013576Y012855D01*
X013647Y012831D01*
X013710Y012822D01*
X013710Y013250D01*
X013810Y013250D01*
X013810Y012822D01*
X013872Y012831D01*
X013944Y012855D01*
X014011Y012889D01*
X014073Y012933D01*
X014126Y012987D01*
X014170Y013048D01*
X014205Y013115D01*
X014228Y013187D01*
X014173Y013054D02*
X027898Y013054D01*
X027997Y012955D02*
X014094Y012955D01*
X013948Y012857D02*
X028095Y012857D01*
X027701Y013251D02*
X013810Y013251D01*
X013810Y013349D02*
X027603Y013349D01*
X027504Y013448D02*
X014216Y013448D01*
X014205Y013484D02*
X014170Y013551D01*
X014126Y013612D01*
X014073Y013666D01*
X014011Y013710D01*
X013944Y013744D01*
X013872Y013768D01*
X013810Y013778D01*
X013810Y013350D01*
X014238Y013350D01*
X014228Y013412D01*
X014205Y013484D01*
X014173Y013546D02*
X027406Y013546D01*
X027307Y013645D02*
X014094Y013645D01*
X013947Y013743D02*
X027209Y013743D01*
X026125Y014827D02*
X011214Y014827D01*
X011313Y014925D02*
X011569Y014925D01*
X011439Y015024D02*
X011322Y015024D01*
X011322Y015122D02*
X011369Y015122D01*
X011329Y015221D02*
X011322Y015221D01*
X011322Y015516D02*
X011343Y015516D01*
X011322Y015615D02*
X011395Y015615D01*
X011322Y015713D02*
X011483Y015713D01*
X011685Y015812D02*
X011270Y015812D01*
X011769Y015812D02*
X011806Y015812D01*
X011806Y015822D02*
X011825Y015822D01*
X011899Y015810D01*
X011970Y015787D01*
X012036Y015753D01*
X012097Y015709D01*
X012150Y015656D01*
X012194Y015596D01*
X012228Y015529D01*
X012251Y015458D01*
X012262Y015384D01*
X012262Y015366D01*
X011806Y015366D01*
X011806Y015822D01*
X011890Y015812D02*
X012919Y015812D01*
X012923Y015787D02*
X012946Y015716D01*
X012980Y015649D01*
X013024Y015589D01*
X013076Y015536D01*
X013137Y015492D01*
X013203Y015458D01*
X013275Y015435D01*
X013348Y015423D01*
X013367Y015423D01*
X013367Y015879D01*
X013405Y015879D01*
X013405Y015423D01*
X013423Y015423D01*
X013497Y015435D01*
X013568Y015458D01*
X013635Y015492D01*
X013695Y015536D01*
X013748Y015589D01*
X013792Y015649D01*
X013826Y015716D01*
X013849Y015787D01*
X013851Y015798D01*
X013851Y015486D01*
X013974Y015363D01*
X014798Y015363D01*
X014921Y015486D01*
X014921Y016310D01*
X014798Y016433D01*
X013974Y016433D01*
X013851Y016310D01*
X013851Y015999D01*
X013849Y016009D01*
X013826Y016080D01*
X013792Y016147D01*
X013748Y016207D01*
X013695Y016260D01*
X013635Y016304D01*
X013851Y016304D01*
X013851Y016206D02*
X013750Y016206D01*
X013812Y016107D02*
X013851Y016107D01*
X013849Y016009D02*
X013851Y016009D01*
X013851Y015713D02*
X013825Y015713D01*
X013851Y015615D02*
X013767Y015615D01*
X013851Y015516D02*
X013668Y015516D01*
X013405Y015516D02*
X013367Y015516D01*
X013367Y015615D02*
X013405Y015615D01*
X013405Y015713D02*
X013367Y015713D01*
X013367Y015812D02*
X013405Y015812D01*
X013367Y015879D02*
X012911Y015879D01*
X012911Y015861D01*
X012923Y015787D01*
X012947Y015713D02*
X012092Y015713D01*
X012180Y015615D02*
X013005Y015615D01*
X013103Y015516D02*
X012232Y015516D01*
X012257Y015418D02*
X013919Y015418D01*
X013405Y015917D02*
X013367Y015917D01*
X013367Y016373D01*
X013348Y016373D01*
X013275Y016361D01*
X013203Y016338D01*
X013137Y016304D01*
X013076Y016260D01*
X013024Y016207D01*
X012980Y016147D01*
X012946Y016080D01*
X012923Y016009D01*
X012911Y015935D01*
X012911Y015917D01*
X013367Y015917D01*
X013367Y015879D01*
X013367Y015910D02*
X008754Y015910D01*
X008778Y016009D02*
X012922Y016009D01*
X012959Y016107D02*
X008778Y016107D01*
X008778Y016206D02*
X013022Y016206D01*
X013137Y016304D02*
X008744Y016304D01*
X008703Y016403D02*
X013943Y016403D01*
X013635Y016304D02*
X013568Y016338D01*
X013497Y016361D01*
X013423Y016373D01*
X013405Y016373D01*
X013405Y015917D01*
X013405Y016009D02*
X013367Y016009D01*
X013367Y016107D02*
X013405Y016107D01*
X013405Y016206D02*
X013367Y016206D01*
X013367Y016304D02*
X013405Y016304D01*
X014828Y016403D02*
X024562Y016403D01*
X024531Y016501D02*
X008637Y016501D01*
X008538Y016600D02*
X024531Y016600D01*
X024531Y016698D02*
X008354Y016698D01*
X007639Y016501D02*
X006169Y016501D01*
X006272Y016403D02*
X007573Y016403D01*
X007532Y016304D02*
X006370Y016304D01*
X006469Y016206D02*
X007498Y016206D01*
X008413Y015516D02*
X010252Y015516D01*
X010252Y015418D02*
X007257Y015418D01*
X008563Y015615D02*
X010252Y015615D01*
X010252Y015713D02*
X008661Y015713D01*
X008713Y015812D02*
X010305Y015812D01*
X011769Y015713D02*
X011806Y015713D01*
X011806Y015615D02*
X011769Y015615D01*
X011769Y015516D02*
X011806Y015516D01*
X011806Y015418D02*
X011769Y015418D01*
X011769Y015319D02*
X011806Y015319D01*
X011806Y015221D02*
X011769Y015221D01*
X011769Y015122D02*
X011806Y015122D01*
X011806Y015024D02*
X011769Y015024D01*
X011769Y014925D02*
X011806Y014925D01*
X012006Y014925D02*
X026027Y014925D01*
X025928Y015024D02*
X012136Y015024D01*
X012206Y015122D02*
X025830Y015122D01*
X025731Y015221D02*
X012246Y015221D01*
X012262Y015319D02*
X025633Y015319D01*
X025534Y015418D02*
X014852Y015418D01*
X014921Y015516D02*
X025436Y015516D01*
X025337Y015615D02*
X014921Y015615D01*
X014921Y015713D02*
X025239Y015713D01*
X025140Y015812D02*
X014921Y015812D01*
X014921Y015910D02*
X025042Y015910D01*
X024943Y016009D02*
X014921Y016009D01*
X014921Y016107D02*
X024845Y016107D01*
X024746Y016206D02*
X014921Y016206D01*
X014921Y016304D02*
X024648Y016304D01*
X023525Y017683D02*
X023057Y017683D01*
X023184Y017782D02*
X023399Y017782D01*
X023312Y017880D02*
X023270Y017880D01*
X022525Y017683D02*
X022057Y017683D01*
X022184Y017782D02*
X022399Y017782D01*
X022312Y017880D02*
X022270Y017880D01*
X021525Y017683D02*
X021057Y017683D01*
X021184Y017782D02*
X021399Y017782D01*
X021312Y017880D02*
X021270Y017880D01*
X020525Y017683D02*
X020057Y017683D01*
X020184Y017782D02*
X020399Y017782D01*
X020312Y017880D02*
X020270Y017880D01*
X019525Y017683D02*
X019057Y017683D01*
X019184Y017782D02*
X019399Y017782D01*
X019312Y017880D02*
X019270Y017880D01*
X018525Y017683D02*
X005311Y017683D01*
X005223Y017782D02*
X018399Y017782D01*
X018312Y017880D02*
X005076Y017880D01*
X002675Y019555D02*
X032183Y019555D01*
X032444Y019456D02*
X002414Y019456D01*
X002265Y019358D02*
X032593Y019358D01*
X032691Y019259D02*
X002167Y019259D01*
X002092Y019161D02*
X032767Y019161D01*
X032823Y019062D02*
X002035Y019062D01*
X001991Y018964D02*
X032867Y018964D01*
X032894Y018865D02*
X001964Y018865D01*
X001939Y018767D02*
X032919Y018767D01*
X027535Y018668D02*
X027048Y018668D01*
X027180Y018570D02*
X027402Y018570D01*
X027314Y018471D02*
X027269Y018471D01*
X026535Y018668D02*
X026048Y018668D01*
X026180Y018570D02*
X026402Y018570D01*
X026314Y018471D02*
X026269Y018471D01*
X025535Y018668D02*
X025048Y018668D01*
X025180Y018570D02*
X025402Y018570D01*
X025314Y018471D02*
X025269Y018471D01*
X024535Y018668D02*
X024048Y018668D01*
X024180Y018570D02*
X024402Y018570D01*
X024314Y018471D02*
X024269Y018471D01*
X023535Y018668D02*
X023048Y018668D01*
X023180Y018570D02*
X023402Y018570D01*
X023314Y018471D02*
X023269Y018471D01*
X022535Y018668D02*
X022048Y018668D01*
X022180Y018570D02*
X022402Y018570D01*
X022314Y018471D02*
X022269Y018471D01*
X021535Y018668D02*
X021048Y018668D01*
X021180Y018570D02*
X021402Y018570D01*
X021314Y018471D02*
X021269Y018471D01*
X020535Y018668D02*
X020048Y018668D01*
X020180Y018570D02*
X020402Y018570D01*
X020314Y018471D02*
X020269Y018471D01*
X019535Y018668D02*
X019048Y018668D01*
X019180Y018570D02*
X019402Y018570D01*
X019314Y018471D02*
X019269Y018471D01*
X018535Y018668D02*
X001932Y018668D01*
X001931Y018570D02*
X018402Y018570D01*
X018314Y018471D02*
X001931Y018471D01*
X001931Y018373D02*
X018273Y018373D01*
X018236Y018274D02*
X001931Y018274D01*
X001931Y018176D02*
X018236Y018176D01*
X018236Y018077D02*
X001931Y018077D01*
X001931Y017979D02*
X018271Y017979D01*
X013810Y013743D02*
X013710Y013743D01*
X013710Y013645D02*
X013810Y013645D01*
X013810Y013546D02*
X013710Y013546D01*
X013710Y013448D02*
X013810Y013448D01*
X013710Y013349D02*
X010300Y013349D01*
X010300Y013251D02*
X013710Y013251D01*
X013710Y013152D02*
X013810Y013152D01*
X013810Y013054D02*
X013710Y013054D01*
X013710Y012955D02*
X013810Y012955D01*
X013810Y012857D02*
X013710Y012857D01*
X013572Y012857D02*
X010080Y012857D01*
X010179Y012955D02*
X013426Y012955D01*
X013347Y013054D02*
X010242Y013054D01*
X010283Y013152D02*
X013303Y013152D01*
X013303Y013448D02*
X010283Y013448D01*
X010242Y013546D02*
X013347Y013546D01*
X013426Y013645D02*
X010179Y013645D01*
X010080Y013743D02*
X013573Y013743D01*
X013288Y011872D02*
X010300Y011872D01*
X010266Y011773D02*
X013317Y011773D01*
X013375Y011675D02*
X010226Y011675D01*
X010139Y011576D02*
X013473Y011576D01*
X010004Y011478D02*
X018316Y011478D01*
X023904Y007439D02*
X025915Y007439D01*
X026061Y007439D02*
X026121Y007439D01*
X026121Y007341D02*
X026061Y007341D01*
X026061Y007242D02*
X026121Y007242D01*
X026121Y007144D02*
X026061Y007144D01*
X025746Y007341D02*
X024072Y007341D01*
X024158Y007242D02*
X025661Y007242D01*
X025607Y007144D02*
X024212Y007144D01*
X024240Y007045D02*
X025579Y007045D01*
X026152Y007538D02*
X006537Y007538D01*
X006537Y007636D02*
X026053Y007636D01*
X025955Y007735D02*
X025860Y007735D01*
X026209Y005371D02*
X032927Y005371D01*
X032927Y005272D02*
X025446Y005272D01*
X025597Y005174D02*
X032927Y005174D01*
X032927Y005075D02*
X025694Y005075D01*
X025735Y004977D02*
X032927Y004977D01*
X032927Y004878D02*
X025776Y004878D01*
X025779Y004780D02*
X032927Y004780D01*
X032927Y004681D02*
X025779Y004681D01*
X025779Y004583D02*
X032927Y004583D01*
X032927Y004484D02*
X025779Y004484D01*
X025779Y004386D02*
X032927Y004386D01*
X032927Y004287D02*
X025779Y004287D01*
X025779Y004189D02*
X032927Y004189D01*
X032927Y004090D02*
X025779Y004090D01*
X025779Y003992D02*
X032927Y003992D01*
X031760Y005568D02*
X030972Y005568D01*
X031171Y005666D02*
X031561Y005666D01*
X031463Y005765D02*
X031269Y005765D01*
X031332Y005863D02*
X031400Y005863D01*
X031383Y006356D02*
X031349Y006356D01*
X031309Y006454D02*
X031424Y006454D01*
X031519Y006553D02*
X031213Y006553D01*
X031073Y006651D02*
X031659Y006651D01*
X009516Y011478D02*
X008872Y011478D01*
X008971Y011576D02*
X009381Y011576D01*
X009294Y011675D02*
X009045Y011675D01*
X009085Y011773D02*
X009253Y011773D01*
X009220Y011872D02*
X009115Y011872D01*
X009115Y011970D02*
X009220Y011970D01*
X009220Y012069D02*
X009115Y012069D01*
X009078Y012167D02*
X009261Y012167D01*
X009301Y012266D02*
X009037Y012266D01*
X008953Y012364D02*
X009399Y012364D01*
X009560Y012463D02*
X008840Y012463D01*
X008231Y012463D02*
X006333Y012463D01*
X004169Y013152D02*
X004131Y013152D01*
X004131Y013251D02*
X004169Y013251D01*
X004169Y013349D02*
X004131Y013349D01*
X004131Y013448D02*
X004169Y013448D01*
X005491Y014827D02*
X005591Y014827D01*
X005591Y014925D02*
X005491Y014925D01*
X005491Y015024D02*
X005591Y015024D01*
X005591Y015122D02*
X005491Y015122D01*
X005491Y015221D02*
X005591Y015221D01*
X005591Y015319D02*
X005491Y015319D01*
X003306Y009212D02*
X003206Y009212D01*
X006223Y003105D02*
X007424Y003105D01*
X007218Y003007D02*
X006223Y003007D01*
X006228Y002908D02*
X007120Y002908D01*
X007050Y002810D02*
X006228Y002810D01*
X006228Y002219D02*
X007048Y002219D01*
X007116Y002120D02*
X006228Y002120D01*
X006224Y002022D02*
X007215Y002022D01*
X007415Y001923D02*
X006126Y001923D01*
D26*
X025654Y008418D02*
X026841Y007231D01*
X026841Y006449D01*
M02*
