G75*
%MOIN*%
%OFA0B0*%
%FSLAX24Y24*%
%IPPOS*%
%LPD*%
%AMOC8*
5,1,8,0,0,1.08239X$1,22.5*
%
%ADD10C,0.0080*%
D10*
X001681Y001331D02*
X001681Y018649D01*
X001683Y018715D01*
X001688Y018781D01*
X001698Y018847D01*
X001711Y018912D01*
X001727Y018976D01*
X001747Y019039D01*
X001771Y019101D01*
X001798Y019161D01*
X001828Y019220D01*
X001862Y019277D01*
X001899Y019332D01*
X001939Y019385D01*
X001981Y019436D01*
X002027Y019484D01*
X002075Y019530D01*
X002126Y019572D01*
X002179Y019612D01*
X002234Y019649D01*
X002291Y019683D01*
X002350Y019713D01*
X002410Y019740D01*
X002472Y019764D01*
X002535Y019784D01*
X002599Y019800D01*
X002664Y019813D01*
X002730Y019823D01*
X002796Y019828D01*
X002862Y019830D01*
X031996Y019830D01*
X032062Y019828D01*
X032128Y019823D01*
X032194Y019813D01*
X032259Y019800D01*
X032323Y019784D01*
X032386Y019764D01*
X032448Y019740D01*
X032508Y019713D01*
X032567Y019683D01*
X032624Y019649D01*
X032679Y019612D01*
X032732Y019572D01*
X032783Y019530D01*
X032831Y019484D01*
X032877Y019436D01*
X032919Y019385D01*
X032959Y019332D01*
X032996Y019277D01*
X033030Y019220D01*
X033060Y019161D01*
X033087Y019101D01*
X033111Y019039D01*
X033131Y018976D01*
X033147Y018912D01*
X033160Y018847D01*
X033170Y018781D01*
X033175Y018715D01*
X033177Y018649D01*
X033177Y001331D01*
X033175Y001265D01*
X033170Y001199D01*
X033160Y001133D01*
X033147Y001068D01*
X033131Y001004D01*
X033111Y000941D01*
X033087Y000879D01*
X033060Y000819D01*
X033030Y000760D01*
X032996Y000703D01*
X032959Y000648D01*
X032919Y000595D01*
X032877Y000544D01*
X032831Y000496D01*
X032783Y000450D01*
X032732Y000408D01*
X032679Y000368D01*
X032624Y000331D01*
X032567Y000297D01*
X032508Y000267D01*
X032448Y000240D01*
X032386Y000216D01*
X032323Y000196D01*
X032259Y000180D01*
X032194Y000167D01*
X032128Y000157D01*
X032062Y000152D01*
X031996Y000150D01*
X002862Y000150D01*
X002796Y000152D01*
X002730Y000157D01*
X002664Y000167D01*
X002599Y000180D01*
X002535Y000196D01*
X002472Y000216D01*
X002410Y000240D01*
X002350Y000267D01*
X002291Y000297D01*
X002234Y000331D01*
X002179Y000368D01*
X002126Y000408D01*
X002075Y000450D01*
X002027Y000496D01*
X001981Y000544D01*
X001939Y000595D01*
X001899Y000648D01*
X001862Y000703D01*
X001828Y000760D01*
X001798Y000819D01*
X001771Y000879D01*
X001747Y000941D01*
X001727Y001004D01*
X001711Y001068D01*
X001698Y001133D01*
X001688Y001199D01*
X001683Y001265D01*
X001681Y001331D01*
M02*
