G75*
%MOIN*%
%OFA0B0*%
%FSLAX24Y24*%
%IPPOS*%
%LPD*%
%AMOC8*
5,1,8,0,0,1.08239X$1,22.5*
%
%ADD10C,0.0080*%
D10*
X001681Y001331D02*
X001681Y019441D01*
X001683Y019507D01*
X001688Y019573D01*
X001698Y019639D01*
X001711Y019704D01*
X001727Y019768D01*
X001747Y019831D01*
X001771Y019893D01*
X001798Y019953D01*
X001828Y020012D01*
X001862Y020069D01*
X001899Y020124D01*
X001939Y020177D01*
X001981Y020228D01*
X002027Y020276D01*
X002075Y020322D01*
X002126Y020364D01*
X002179Y020404D01*
X002234Y020441D01*
X002291Y020475D01*
X002350Y020505D01*
X002410Y020532D01*
X002472Y020556D01*
X002535Y020576D01*
X002599Y020592D01*
X002664Y020605D01*
X002730Y020615D01*
X002796Y020620D01*
X002862Y020622D01*
X031996Y020622D01*
X032062Y020620D01*
X032128Y020615D01*
X032194Y020605D01*
X032259Y020592D01*
X032323Y020576D01*
X032386Y020556D01*
X032448Y020532D01*
X032508Y020505D01*
X032567Y020475D01*
X032624Y020441D01*
X032679Y020404D01*
X032732Y020364D01*
X032783Y020322D01*
X032831Y020276D01*
X032877Y020228D01*
X032919Y020177D01*
X032959Y020124D01*
X032996Y020069D01*
X033030Y020012D01*
X033060Y019953D01*
X033087Y019893D01*
X033111Y019831D01*
X033131Y019768D01*
X033147Y019704D01*
X033160Y019639D01*
X033170Y019573D01*
X033175Y019507D01*
X033177Y019441D01*
X033177Y001331D01*
X033175Y001265D01*
X033170Y001199D01*
X033160Y001133D01*
X033147Y001068D01*
X033131Y001004D01*
X033111Y000941D01*
X033087Y000879D01*
X033060Y000819D01*
X033030Y000760D01*
X032996Y000703D01*
X032959Y000648D01*
X032919Y000595D01*
X032877Y000544D01*
X032831Y000496D01*
X032783Y000450D01*
X032732Y000408D01*
X032679Y000368D01*
X032624Y000331D01*
X032567Y000297D01*
X032508Y000267D01*
X032448Y000240D01*
X032386Y000216D01*
X032323Y000196D01*
X032259Y000180D01*
X032194Y000167D01*
X032128Y000157D01*
X032062Y000152D01*
X031996Y000150D01*
X002862Y000150D01*
X002796Y000152D01*
X002730Y000157D01*
X002664Y000167D01*
X002599Y000180D01*
X002535Y000196D01*
X002472Y000216D01*
X002410Y000240D01*
X002350Y000267D01*
X002291Y000297D01*
X002234Y000331D01*
X002179Y000368D01*
X002126Y000408D01*
X002075Y000450D01*
X002027Y000496D01*
X001981Y000544D01*
X001939Y000595D01*
X001899Y000648D01*
X001862Y000703D01*
X001828Y000760D01*
X001798Y000819D01*
X001771Y000879D01*
X001747Y000941D01*
X001727Y001004D01*
X001711Y001068D01*
X001698Y001133D01*
X001688Y001199D01*
X001683Y001265D01*
X001681Y001331D01*
M02*
