G75*
%MOIN*%
%OFA0B0*%
%FSLAX24Y24*%
%IPPOS*%
%LPD*%
%AMOC8*
5,1,8,0,0,1.08239X$1,22.5*
%
%ADD10R,0.0984X0.0315*%
%ADD11R,0.0657X0.0315*%
%ADD12R,0.0315X0.0657*%
%ADD13C,0.0787*%
%ADD14C,0.0740*%
%ADD15C,0.0650*%
%ADD16R,0.0650X0.0650*%
%ADD17R,0.0354X0.0276*%
%ADD18R,0.0460X0.0630*%
%ADD19C,0.0690*%
%ADD20C,0.0705*%
%ADD21C,0.0740*%
%ADD22C,0.0600*%
%ADD23C,0.0860*%
%ADD24C,0.0660*%
%ADD25R,0.0480X0.0880*%
%ADD26R,0.1417X0.0866*%
%ADD27R,0.0800X0.0800*%
%ADD28C,0.0800*%
%ADD29C,0.0520*%
%ADD30C,0.2300*%
%ADD31C,0.0100*%
%ADD32C,0.0160*%
%ADD33C,0.0120*%
D10*
X029417Y007394D03*
D11*
X027955Y007394D03*
D12*
X028268Y006581D03*
X028768Y006581D03*
X029268Y006581D03*
X029268Y008207D03*
X028768Y008207D03*
X028268Y008207D03*
D13*
X005933Y007796D02*
X005933Y007008D01*
X005146Y005433D02*
X004358Y005433D01*
X003453Y007008D02*
X003453Y007796D01*
D14*
X003256Y009623D02*
X003256Y010363D01*
X004256Y010363D02*
X004256Y009623D01*
D15*
X004150Y013536D03*
X011787Y015347D03*
X013386Y015898D03*
D16*
X014386Y015898D03*
X010787Y015347D03*
X003150Y013536D03*
D17*
X027350Y009776D03*
X028138Y009776D03*
X028138Y009264D03*
X027350Y009264D03*
D18*
X028089Y005268D03*
X028689Y005268D03*
X029289Y005268D03*
D19*
X028791Y011174D03*
X027791Y011174D03*
X026791Y011174D03*
X025791Y011174D03*
X024791Y011174D03*
X023791Y011174D03*
X022791Y011174D03*
X021791Y011174D03*
X020791Y011174D03*
X019791Y011174D03*
X018791Y011174D03*
X029791Y011174D03*
X029791Y018174D03*
X028791Y018174D03*
X027791Y018174D03*
X026791Y018174D03*
X025791Y018174D03*
X024791Y018174D03*
X023791Y018174D03*
X022791Y018174D03*
X021791Y018174D03*
X020791Y018174D03*
X019791Y018174D03*
X018791Y018174D03*
D20*
X019217Y004758D02*
X019217Y004053D01*
X021217Y004053D02*
X021217Y004758D01*
X023217Y004758D02*
X023217Y004053D01*
X025217Y004053D02*
X025217Y004758D01*
X025217Y001758D02*
X025217Y001053D01*
X023217Y001053D02*
X023217Y001758D01*
X021217Y001758D02*
X021217Y001053D01*
X019217Y001053D02*
X019217Y001758D01*
X017217Y001758D02*
X017217Y001053D01*
X015217Y001053D02*
X015217Y001758D01*
X013217Y001758D02*
X013217Y001053D01*
X011217Y001053D02*
X011217Y001758D01*
X011217Y004053D02*
X011217Y004758D01*
X013217Y004758D02*
X013217Y004053D01*
X015217Y004053D02*
X015217Y004758D01*
X017217Y004758D02*
X017217Y004053D01*
D21*
X016642Y005949D03*
X017392Y006449D03*
X016642Y006949D03*
X015030Y006449D03*
X014280Y005949D03*
X012667Y006449D03*
X011917Y005949D03*
X011917Y006949D03*
X010305Y006449D03*
X009555Y006949D03*
X009555Y005949D03*
X014280Y006949D03*
X019004Y006949D03*
X019754Y006449D03*
X019004Y005949D03*
X021366Y005949D03*
X022116Y006449D03*
X021366Y006949D03*
X023728Y006949D03*
X024478Y006449D03*
X023728Y005949D03*
X026091Y005949D03*
X026841Y006449D03*
X026091Y006949D03*
X030815Y006130D03*
X031917Y006130D03*
X031917Y009130D03*
X030815Y009130D03*
X008535Y011961D03*
X006012Y012957D03*
X006012Y013957D03*
X005535Y011961D03*
D22*
X005541Y015173D02*
X005541Y015773D01*
X004201Y015773D02*
X004201Y015173D01*
X002861Y015173D02*
X002861Y015773D01*
X003531Y016813D02*
X003531Y017413D01*
X004871Y017413D02*
X004871Y016813D01*
D23*
X008138Y016095D03*
X008138Y014126D03*
D24*
X009760Y013300D03*
X009760Y011961D03*
X013760Y011961D03*
X013760Y013300D03*
D25*
X015732Y013182D03*
X016642Y013182D03*
X017552Y013182D03*
D26*
X016642Y015622D03*
D27*
X005618Y002512D03*
D28*
X007587Y002512D03*
D29*
X010386Y008158D02*
X010386Y008678D01*
X011386Y008678D02*
X011386Y008158D01*
X012386Y008158D02*
X012386Y008678D01*
X013386Y008678D02*
X013386Y008158D01*
X014386Y008158D02*
X014386Y008678D01*
X015386Y008678D02*
X015386Y008158D01*
X016386Y008158D02*
X016386Y008678D01*
X017386Y008678D02*
X017386Y008158D01*
X018654Y008158D02*
X018654Y008678D01*
X019654Y008678D02*
X019654Y008158D01*
X020654Y008158D02*
X020654Y008678D01*
X021654Y008678D02*
X021654Y008158D01*
X022654Y008158D02*
X022654Y008678D01*
X023654Y008678D02*
X023654Y008158D01*
X024654Y008158D02*
X024654Y008678D01*
X025654Y008678D02*
X025654Y008158D01*
D30*
X028846Y002512D03*
X007823Y009441D03*
X011996Y018260D03*
D31*
X026791Y016174D02*
X026791Y011174D01*
X027350Y010615D01*
X027350Y009776D01*
X026091Y008516D01*
X026091Y006949D01*
X027941Y007380D02*
X027941Y006174D01*
X028689Y005426D01*
X028689Y005268D01*
X029289Y005268D02*
X029953Y005268D01*
X030815Y006130D01*
X031917Y006130D02*
X030583Y004796D01*
X028217Y004796D01*
X028089Y004923D01*
X028089Y005268D01*
X028768Y006581D02*
X028768Y006843D01*
X029004Y007079D01*
X029909Y007079D01*
X030815Y007985D01*
X030815Y009130D01*
X031917Y009130D02*
X031917Y008851D01*
X029648Y006581D01*
X029268Y006581D01*
X027955Y007394D02*
X027955Y007748D01*
X029476Y007748D01*
X029791Y008063D01*
X029791Y011174D01*
X028138Y009776D02*
X027350Y009776D01*
X028138Y009776D02*
X029268Y008646D01*
X029268Y008207D01*
X028268Y008207D02*
X027744Y008731D01*
X027744Y009264D01*
X028138Y009264D01*
X027744Y009264D02*
X027350Y009264D01*
X028268Y008207D02*
X027955Y007894D01*
X027955Y007748D01*
X027955Y007394D02*
X027941Y007380D01*
X026791Y016174D02*
X028791Y018174D01*
D32*
X017552Y013182D02*
X015819Y011449D01*
X011091Y011449D01*
X011091Y015044D01*
X010787Y015347D01*
X008886Y015347D01*
X008138Y016095D01*
X007120Y017113D01*
X004871Y017113D01*
X005541Y015473D02*
X004201Y015473D01*
X004150Y015422D01*
X004150Y013930D01*
X004177Y013957D01*
X006012Y013957D01*
X004150Y013930D02*
X004150Y013536D01*
X003150Y013536D02*
X003150Y015184D01*
X002861Y015473D01*
X003138Y013524D02*
X003138Y012394D01*
X004256Y011276D01*
X004256Y009993D01*
X005933Y008315D01*
X005933Y007402D01*
X006799Y006095D02*
X007654Y006949D01*
X009555Y006949D01*
X009555Y005949D02*
X009555Y003067D01*
X011217Y001406D01*
X011917Y002705D02*
X013217Y001406D01*
X014280Y002343D02*
X014280Y005949D01*
X016642Y005949D02*
X016642Y001981D01*
X017217Y001406D01*
X018610Y002012D02*
X018610Y005556D01*
X019004Y005949D01*
X021366Y005949D02*
X021799Y005516D01*
X021799Y001989D01*
X021217Y001406D01*
X023217Y001406D02*
X023965Y002154D01*
X023965Y005713D01*
X023728Y005949D01*
X026091Y005949D02*
X026091Y002280D01*
X025217Y001406D01*
X019217Y001406D02*
X018610Y002012D01*
X015217Y001406D02*
X014280Y002343D01*
X011917Y002705D02*
X011917Y005949D01*
X006799Y006095D02*
X004760Y006095D01*
X004752Y006103D01*
X003453Y007402D01*
X003453Y009796D01*
X003256Y009993D01*
X008535Y011961D02*
X009760Y011961D01*
X010272Y011449D01*
X011091Y011449D01*
X013760Y011961D02*
X013760Y013300D01*
X013877Y013182D01*
X015732Y013182D01*
X013760Y013300D02*
X013760Y014422D01*
X012835Y015347D01*
X013386Y015898D01*
X012835Y015347D02*
X011787Y015347D01*
X014386Y015898D02*
X016366Y015898D01*
X016642Y015622D01*
X009760Y013300D02*
X008965Y013300D01*
X008138Y014126D01*
X004752Y006103D02*
X004752Y005433D01*
D33*
X010305Y006449D02*
X011386Y007530D01*
X011386Y008418D01*
X012386Y008418D02*
X014433Y010465D01*
X019083Y010465D01*
X019791Y011174D01*
X019886Y010268D02*
X020791Y011174D01*
X021791Y011174D02*
X020689Y010071D01*
X018039Y010071D01*
X016386Y008418D01*
X017386Y008418D02*
X017392Y008412D01*
X017392Y006449D01*
X019754Y006449D02*
X019754Y008317D01*
X019654Y008418D01*
X020654Y008418D02*
X020657Y008418D01*
X022114Y009874D01*
X022492Y009874D01*
X023791Y011174D01*
X022791Y011174D02*
X022791Y011063D01*
X021602Y009874D01*
X020110Y009874D01*
X018654Y008418D01*
X019886Y010268D02*
X016236Y010268D01*
X014386Y008418D01*
X015030Y008061D02*
X015030Y006449D01*
X013386Y007168D02*
X012667Y006449D01*
X013386Y007168D02*
X013386Y008418D01*
X015030Y008061D02*
X015386Y008418D01*
X013142Y011174D02*
X010386Y008418D01*
X013142Y011174D02*
X018791Y011174D01*
X017552Y013182D02*
X017552Y017910D01*
X018335Y018693D01*
X029272Y018693D01*
X029791Y018174D01*
X025791Y011174D02*
X024654Y010036D01*
X024654Y008418D01*
X024478Y007593D02*
X023654Y008418D01*
X022654Y008418D02*
X022654Y009036D01*
X024791Y011174D01*
X021654Y008418D02*
X022116Y007955D01*
X022116Y006449D01*
X024478Y006449D02*
X024478Y007593D01*
X006012Y012957D02*
X005535Y012481D01*
X005535Y011961D01*
M02*
