G75*
%MOIN*%
%OFA0B0*%
%FSLAX24Y24*%
%IPPOS*%
%LPD*%
%AMOC8*
5,1,8,0,0,1.08239X$1,22.5*
%
%ADD10C,0.0827*%
%ADD11C,0.0780*%
%ADD12C,0.0690*%
%ADD13R,0.0690X0.0690*%
%ADD14C,0.0730*%
%ADD15C,0.0745*%
%ADD16C,0.0780*%
%ADD17C,0.0640*%
%ADD18C,0.0900*%
%ADD19C,0.0700*%
%ADD20R,0.0840X0.0840*%
%ADD21C,0.0840*%
%ADD22C,0.0560*%
%ADD23C,0.2340*%
D10*
X004358Y005433D02*
X005146Y005433D01*
X005933Y007008D02*
X005933Y007796D01*
X003453Y007796D02*
X003453Y007008D01*
D11*
X003256Y009623D02*
X003256Y010363D01*
X004256Y010363D02*
X004256Y009623D01*
D12*
X004150Y013536D03*
X011787Y015347D03*
X013386Y015898D03*
D13*
X014386Y015898D03*
X010787Y015347D03*
X003150Y013536D03*
D14*
X018791Y011174D03*
X019791Y011174D03*
X020791Y011174D03*
X021791Y011174D03*
X022791Y011174D03*
X023791Y011174D03*
X024791Y011174D03*
X025791Y011174D03*
X026791Y011174D03*
X027791Y011174D03*
X028791Y011174D03*
X029791Y011174D03*
X029791Y018174D03*
X028791Y018174D03*
X027791Y018174D03*
X026791Y018174D03*
X025791Y018174D03*
X024791Y018174D03*
X023791Y018174D03*
X022791Y018174D03*
X021791Y018174D03*
X020791Y018174D03*
X019791Y018174D03*
X018791Y018174D03*
D15*
X019217Y004758D02*
X019217Y004053D01*
X021217Y004053D02*
X021217Y004758D01*
X023217Y004758D02*
X023217Y004053D01*
X025217Y004053D02*
X025217Y004758D01*
X025217Y001758D02*
X025217Y001053D01*
X023217Y001053D02*
X023217Y001758D01*
X021217Y001758D02*
X021217Y001053D01*
X019217Y001053D02*
X019217Y001758D01*
X017217Y001758D02*
X017217Y001053D01*
X015217Y001053D02*
X015217Y001758D01*
X013217Y001758D02*
X013217Y001053D01*
X011217Y001053D02*
X011217Y001758D01*
X011217Y004053D02*
X011217Y004758D01*
X013217Y004758D02*
X013217Y004053D01*
X015217Y004053D02*
X015217Y004758D01*
X017217Y004758D02*
X017217Y004053D01*
D16*
X016642Y005949D03*
X017392Y006449D03*
X016642Y006949D03*
X015030Y006449D03*
X014280Y005949D03*
X012667Y006449D03*
X011917Y005949D03*
X011917Y006949D03*
X010305Y006449D03*
X009555Y006949D03*
X009555Y005949D03*
X014280Y006949D03*
X019004Y006949D03*
X019754Y006449D03*
X019004Y005949D03*
X021366Y005949D03*
X022116Y006449D03*
X021366Y006949D03*
X023728Y006949D03*
X024478Y006449D03*
X023728Y005949D03*
X026091Y005949D03*
X026841Y006449D03*
X026091Y006949D03*
X030815Y006130D03*
X031917Y006130D03*
X031917Y009130D03*
X030815Y009130D03*
X008535Y011961D03*
X006012Y012957D03*
X006012Y013957D03*
X005535Y011961D03*
D17*
X005541Y015173D02*
X005541Y015773D01*
X004201Y015773D02*
X004201Y015173D01*
X002861Y015173D02*
X002861Y015773D01*
X003531Y016813D02*
X003531Y017413D01*
X004871Y017413D02*
X004871Y016813D01*
D18*
X008138Y016095D03*
X008138Y014126D03*
D19*
X009760Y013300D03*
X009760Y011961D03*
X013760Y011961D03*
X013760Y013300D03*
D20*
X005618Y002512D03*
D21*
X007587Y002512D03*
D22*
X010386Y008158D02*
X010386Y008678D01*
X011386Y008678D02*
X011386Y008158D01*
X012386Y008158D02*
X012386Y008678D01*
X013386Y008678D02*
X013386Y008158D01*
X014386Y008158D02*
X014386Y008678D01*
X015386Y008678D02*
X015386Y008158D01*
X016386Y008158D02*
X016386Y008678D01*
X017386Y008678D02*
X017386Y008158D01*
X018654Y008158D02*
X018654Y008678D01*
X019654Y008678D02*
X019654Y008158D01*
X020654Y008158D02*
X020654Y008678D01*
X021654Y008678D02*
X021654Y008158D01*
X022654Y008158D02*
X022654Y008678D01*
X023654Y008678D02*
X023654Y008158D01*
X024654Y008158D02*
X024654Y008678D01*
X025654Y008678D02*
X025654Y008158D01*
D23*
X028846Y002512D03*
X007823Y009441D03*
X011996Y018260D03*
M02*
