%
M48
M72
T01C0.0276
T02C0.0320
T03C0.0350
T04C0.0354
T05C0.0394
T06C0.0400
T07C0.0440
T08C0.0470
T09C0.0472
T10C0.0512
T11C0.1181
%
T01
X3150Y13536
X4150Y13536
X10787Y15347
X11787Y15347
X13386Y15898
X14386Y15898
T02
X6012Y13957
X6012Y12957
X10386Y8418
X11386Y8418
X12386Y8418
X13386Y8418
X14386Y8418
X15386Y8418
X16386Y8418
X17386Y8418
X18654Y8418
X19654Y8418
X20654Y8418
X21654Y8418
X22654Y8418
X23654Y8418
X24654Y8418
X25654Y8418
X26091Y6949
X26841Y6449
X26091Y5949
X24478Y6449
X23728Y6949
X23728Y5949
X22116Y6449
X21366Y6949
X21366Y5949
X19754Y6449
X19004Y6949
X19004Y5949
X17392Y6449
X16642Y5949
X15030Y6449
X14280Y5949
X12667Y6449
X11917Y5949
X11917Y6949
X10305Y6449
X9555Y6949
X9555Y5949
X14280Y6949
X16642Y6949
T03
X18791Y11174
X19791Y11174
X20791Y11174
X21791Y11174
X22791Y11174
X23791Y11174
X24791Y11174
X25791Y11174
X26791Y11174
X27791Y11174
X28791Y11174
X29791Y11174
X29791Y18174
X28791Y18174
X27791Y18174
X26791Y18174
X25791Y18174
X24791Y18174
X23791Y18174
X22791Y18174
X21791Y18174
X20791Y18174
X19791Y18174
X18791Y18174
T04
X8535Y11961
X5535Y11961
X30815Y9130
X31917Y9130
X31917Y6130
X30815Y6130
T05
X5933Y7402
X3453Y7402
X4752Y5433
T06
X4201Y15473
X5541Y15473
X4871Y17113
X3531Y17113
X2861Y15473
T07
X9760Y13300
X9760Y11961
X13760Y11961
X13760Y13300
X4256Y9993
X3256Y9993
T08
X11217Y4406
X13217Y4406
X15217Y4406
X17217Y4406
X19217Y4406
X21217Y4406
X23217Y4406
X25217Y4406
X25217Y1406
X23217Y1406
X21217Y1406
X19217Y1406
X17217Y1406
X15217Y1406
X13217Y1406
X11217Y1406
T09
X8138Y14126
X8138Y16095
T10
X5618Y2512
X7587Y2512
T11
X7823Y9441
X11996Y18260
X28846Y2512
M30
